/* XPM */
static char *f21c2c3770084a48a016cbd160c67d0d[] = {
/* columns rows colors chars-per-pixel */
"32 32 59 1 ",
"  c #280C0C",
". c #2A0C0C",
"X c #2D0D0D",
"o c #2F0D0D",
"O c #320E0E",
"+ c #330F0F",
"@ c #350F0F",
"# c #361010",
"$ c #481414",
"% c #491515",
"& c #4C1616",
"* c #4E1616",
"= c #511717",
"- c #531717",
"; c #541818",
": c #561818",
"> c #561C1A",
", c #591919",
"< c #591D1B",
"1 c #5B1D1B",
"2 c #5D1D1B",
"3 c #5E1E1C",
"4 c #601E1C",
"5 c #621F1D",
"6 c #64231F",
"7 c #652320",
"8 c #672320",
"9 c #692320",
"0 c #6A2421",
"q c #6E2623",
"w c #752A25",
"e c gray40",
"r c #686868",
"t c #6F6F6F",
"y c #717171",
"u c gray48",
"i c #7C7C7C",
"p c #7E7E7E",
"a c #808080",
"s c #818181",
"d c gray52",
"f c gray53",
"g c #8B8B8B",
"h c #8D8D8D",
"j c gray56",
"k c #909090",
"l c gray58",
"z c #979797",
"x c #989898",
"c c gray60",
"v c #9B9B9B",
"b c gray61",
"n c #9D9D9D",
"m c #A2A2A2",
"M c #A4A4A4",
"N c #A5A5A5",
"B c #AFAFAF",
"V c #B1B1B1",
"C c gray71",
/* pixels */
"udhxzzbbhkkhjjjjjjjjkkhBCVmMNzgf",
".w909980066624611136,;331251;31r",
"o915223>,;24%%**-;;;$*;$%;*%;*;e",
"@0>%-*-;--;:;;*%*;$%-*;**;%%$$;t",
"@82;-**-$*;;:;--%*-*-*%-;%;**&%t",
"oq;**-;-$;;;:;*$;*$-;;::%;*-$$-p",
"O3;*$*%;**;*-*:**,**-%*%:-*;-;;p",
"o5*%;;%;;;;$--*$;$;-*-;;;%;*-,$z",
"O-%*%***%%--;$;;-$%;;*,%--;-*-*j",
"O*%-*%;;;-**:;;:%,;*-;%;%;,%;;;z",
"O*%***;%*-;%*;;***%,*-&;*****%-j",
"+*%*;;;**-;;;;;;;**-*%--%---;;;l",
"#*---**-;*-%-$**%**%-%;%$*--;$*z",
"o$**%--%;%:;;-**-;*%;--&%;=-***z",
"O*%-%*%%**-;%%;;*--;--%*-=$*$**i",
"oo+oo++o.@o Ooo.O.@O+.#oOo+ooo+i",
"MMNNNmmNvvbxsxartsssNCCBCVvvbbbi",
"116;>212333,<<.ew7q0868066524511",
";;-**;*%-&%*&;.y022222>2:26$*%%-",
":$%-*;%*-&*%*-oy0;%;-;;*-;:--**%",
"---*;%*;%,;%*$+i62*-*%*$;-::;-&%",
"*$----;*;&;%%-+uq;-*-,;$*;;;;&%,",
";*%;**%;**;;--#x3;*$-%;;*;***-;*",
"-;**-;,;%-;-,%.j6%*;*%;;--%;-*$;",
"$$;;*,*%-;*-=-ol-%**%*--%-;-*;*-",
";;*-*$;*;;*-=*.x*%;%*-*;*-*;-;;*",
"%$,*-*;-*==*$-.j**-**;%*-;%---;$",
";-;*$*-$==*-,;#x*%%:;**;%;;;;;;;",
"**$*%-*$$-*-%*ox*-;-%*;;*-*;$-*%",
";*%;;-*%;;;***#i$***-;$;%;;;-$*-",
";;;-;%*-;$-**;op*%-$*%$-*-;%%--*",
".@O@ #oO.Oo oo.ioo+oo+o.oo.oOO.o"
};
