/* XPM */
static char *d18212cc2a354ae4cfa8daf16136f82b[] = {
/* columns rows colors chars-per-pixel */
"32 32 18 1 ",
"  c #2D4020",
". c #2F4321",
"X c #304422",
"o c #304622",
"O c #324824",
"+ c #334A24",
"@ c #344B25",
"# c #354C26",
"$ c #364E26",
"% c #374F27",
"& c #385028",
"* c #395228",
"= c #3A5329",
"- c #3B542A",
"; c #3D572B",
": c #3D592B",
"> c #3F5B2D",
", c #405D2D",
/* pixels */
"O>&-&o&-&+;&&&+@+;$;++o:+&&+&+&&",
":-;O$o&>$&&*&&@+$&o&++;&++O*+&&;",
"o@$o.$&$&&o+o;&. -,o&*&&+@:-;o.*",
"$;:-OoOo++;@@$o&@@o&+&*$;;&+oo-;",
"o&$,&$&&,o&.&&oo&-@&&&o@-&:O+&O-",
"@.o;,&O$&+&+&&o&@o@@&+&&&o@@;.&&",
";o$&&@&&::&&o++&-$&.;++;&;+&.oo&",
";o:.+&:&&&&&$&$&&o;+o&o&-+;-+,-&",
"@&&@.&&@o&@&@&+o-O-&&&$&&o&+&&.o",
"&$o@&.&.&@-oo&&@+*+-+-o$+,&&&o&&",
"&@&$@&&;$&&&@:.&+.o+o+o*oO-@.;o&",
"&@;@@.&@:&&&&&&&*-,.+*+&ooO+.&+;",
"$@&Ooo&$++::@.&& &-$*&&&++-&+++&",
"@&&;o&o&$+o;@&o:&&,&-*+O+&++&&&-",
"@&o&.-&o&&&-&$&@& &+&&,+oO&**&*,",
"ooo@@&.@ .;@$&*&+,&.; &&,&&,-,-@",
".=@+&.- .o&OOO.&*+&,&+.*&$+ --&*",
"OO-**,=O++$.+..O&&$&,&&+@+--&+&+",
"& ,&&+,@&+&-&O&@O *&&+O-O-.,, @,",
"&-&++&+O=,-..+*+&&++,-&@.@.,., +",
"O==&+&@+&&+&,+,+.* -,&-.,@@.@.@@",
"+-o&=O-&=+,&O=.=$&&+.+&@.&&@ @O.",
",+& -O&&@,.oOo+=&+&-*@-&@.@.&oO-",
"O+.+&+O& &,,&oo+ &OO-+o@&.O..@-.",
"=,O.-,,.=+,&O.&=+&.$&,+&&-.--&.,",
"+&O@O=&,+.=@&O.=*@@.@-oo@,-@&&$ ",
"*O&@+&&&=&@+.=&-+*+-& .&&.@&+**O",
"@O@,&o,,.+++&&.&$&-&..&@@O&,&$.-",
"&,@.++,*O+*&&O@O*&+,&,OO+$O*+&@&",
"+@**&,+&&&@=o.,+$&+&&@&OO-&&-oO,",
"++&&+,@@+---o-&o&,*+,&@++-&.,+-&",
"&..*&+&&O@&&,o++-*+.@*--&*.*.+&$"
};
