/* XPM */
static char *_b7c2e016b764273a98015c407fb0106[] = {
/* columns rows colors chars-per-pixel */
"32 32 48 1 ",
"  c #2E2B2D",
". c #2D312D",
"X c #362F31",
"o c #353434",
"O c #383430",
"+ c #393B34",
"@ c #36363A",
"# c #35393A",
"$ c #3B3C3C",
"% c #404039",
"& c #383D40",
"* c #413E41",
"= c #434244",
"- c #4A4347",
"; c #4B4A46",
": c #4C4C4C",
"> c #524E4E",
", c #4D514C",
"< c #52514E",
"1 c #4E4D50",
"2 c #544E52",
"3 c #4E5152",
"4 c #535453",
"5 c #595655",
"6 c #565A55",
"7 c #5B5A55",
"8 c #555559",
"9 c #5A565A",
"0 c #565B5B",
"q c #5C5C5C",
"w c #615D5D",
"e c #5D615D",
"r c #61625E",
"t c #5D5D61",
"y c #625E62",
"u c #5E6262",
"i c #636363",
"p c #686563",
"a c #656965",
"s c #696964",
"d c #656569",
"f c #6A666A",
"g c #666B6B",
"h c #6A6A6B",
"j c #6D716D",
"k c #70746C",
"l c #6F6B71",
"z c #737374",
/* pixels */
"haq2rhzhwtgife1=qaq22iapyqyqq59p",
"9qaiiiuapq730i3 19ahyypi9t9w95w8",
"wqqqufldalzje8, <qq9qqqrdyqq7858",
"fahaia889yiaif0#qajfuweqqwayrpir",
"qq0rrirptiyias9$<00tiqqq845875qr",
"69uyfriuidg83<;X:9qqiidiapiie769",
"56quaueteqt3oo1X;60qqq97686239q9",
"qtyyiiiiitt<o@3$4yyyqitqeq0qwqiq",
"tqqq0qruaiy<,;:o<q0096497iy9w685",
"tqqq6q7qqwiiqq1=qreq00eyeraw49qw",
"tw9qiqqq697qwq3=3i9qqqqq6687q7tq",
"qtsftrqqrre0qi5=2qshirqqiirrpeiy",
"twqwifhsut76t03=<wqqidariq60qieu",
"952699qqyw60006*152899wwyw6q0qtq",
"wietruiiwwqqr7:=2u7qriafyitqrqqy",
"qiqqwtyuqyrdee,=<itiiqwtiyaaiiqi",
"ihsiirwy7qepwq4$9hhauayshjlsi90q",
"qqgfar0<qq00qu<+6qafi4qtdfjkpeqe",
"pie0q389qq787w<o4iuq0sfdtu00urqr",
"0et09<7qqqq66q,.:uy00qtq99998687",
"ieqqrwptwqq789>X8e0yrfsqrq744qqq",
"tw4q8wqqqyasaw2@6q4956897uepwqqe",
"qqqei00q226qwi3$,tqeisyw424yasii",
"ttrqq877qq070q3@4uewiqqqqq9669qq",
"qr9q00quqttrru<O2r9q0qiwqwuaauwq",
"wqwwwpiuqq67qt,%49wqqqqqtiqrqqqr",
"9qqqqqeriyqq0i6&2121q9q7qqiq0qwq",
"qqqqq<50636765;#>oo1q9qt0q7867q0",
"97689e6erweq0q1$1Oo1qqqeqq0qq989",
"rpritiee0ewqqq5-662<ttq07rpqqtiq",
"7q7qq00480wrqt1$;0qq9utq0riip8q9",
"88q9q0tqq678581@:8qqq0eqegi9q946"
};
