/* XPM */
static char *b8ae55070ded4fa3b7ee77800ac00a38[] = {
/* columns rows colors chars-per-pixel */
"32 32 59 1 ",
"  c #2C2218",
". c #2E241A",
"X c #2F251B",
"o c #30261B",
"O c #32271D",
"+ c #33281E",
"@ c #34291E",
"# c #352A1F",
"$ c #362B20",
"% c #372C21",
"& c #382E22",
"* c #3A2F24",
"= c #3C3125",
"- c #3D3226",
"; c #3E3327",
": c #3F3428",
"> c #403529",
", c #42372A",
"< c #43382B",
"1 c #463A2E",
"2 c #473B2F",
"3 c #483C2F",
"4 c #4B3F32",
"5 c #4C4033",
"6 c #4D4134",
"7 c #4E4235",
"8 c #504437",
"9 c #514537",
"0 c #524638",
"q c #534739",
"w c #54483A",
"e c #564A3C",
"r c #574B3D",
"t c #594D3F",
"y c #5A4E40",
"u c #5B4F41",
"i c #5C5042",
"p c #5E5244",
"a c #5F5345",
"s c #605445",
"d c #625647",
"f c #645849",
"g c #65594A",
"h c #675B4C",
"j c #6A5E4F",
"k c #6B5F50",
"l c #6C6051",
"z c #6D6152",
"x c #6F6354",
"c c #736758",
"v c #74685A",
"b c #75695B",
"n c #766A5C",
"m c #786C5E",
"M c #7B6F61",
"N c #7C7062",
"B c #7D7163",
"V c #7E7264",
"C c #807466",
/* pixels */
"O9mmne@tt8w9w+wNup0wew@ww@em999t",
"@smjke&twww92Xtmff9t52+3<5OOX#ow",
"0mzkk0O7w8<:2@tnjhwe1,@212Ow07wo",
"emjkf,@15:<%+wMsiu2:2#@#XOXmmmio",
"0Ne70:+-+X+99m9we714Ow7ew9 Bip59",
"e7e7w1-X2wwmb995,::#umnBN0#9ie77",
"w7w0w4%X:am8www5&&&@1d8d02X44: 9",
"07wi01,+15911:O%OOO@O,7p42:+#:O0",
"5115w1,oX@@o&O0bmNBb&:o51&&O&&OX",
"+12w,5,Owt74@1mmbs0et<X&,&<Oo7w8",
"1O5w11,&9mNt@wmnesw0w22XO&OueBBm",
"7++O::Ownkzw+4jffp595e75:OeBnpu0",
"9+t7+<wnzxkeO7hapww00e0e2O0Bppp0",
"9+mN+wjfzzzeX1hadue0etw3 eNsjup0",
"+sVmXtmfus02,Xet5te0t794X0mpu95,",
"wmsi9%w8110w4$4ew1507t1-O7pds11X",
"Mfau1O17e1,1$O,1053<55%+5+w5--XM",
"cew94O44w0,*%O&-<99w9:-X8wXoXX<m",
"0ee9,OX001,-O,oO+55<:%@9Nmmt&X:9",
"wte1,*w@1,1$0V4,1#+&+*+5mat9*+:w",
"eu84OwM&@+*0NmMmbw9+++0Maase5<O9",
"e04: 0N%e40bMjai00+7%9eMsas<:&-@",
"414OaMa%7Nmnffsae9+ei@@111&<**:&",
"$%O0nw0@7Nahsu175+tbCw0+,<%*+@%7",
"w%5baw2+Owasi0491+0mMnb1OOXO-ew0",
"0+tN4O,1e&@Xw91<1&enaa7u4e+,107e",
",2%eo5wmnMmwO1-*@5Mmfae0e1%14097",
"22X1+1zfktaM0O$&@1nif977e3o@O@ew",
"X<XO@0nfzaa01OXo:4iauw07:X5137XX",
"9 11OwNsa0e,X&-1O+&w7001,O7MnM00",
"+wMco50wee3,o&<070t%ee94@ene0000",
"#9bm@8wte4<O,-1wewet$<44OeM00e0t"
};
