/* XPM */
static char *_746970e7611401a98e7a78e7372d1e4[] = {
/* columns rows colors chars-per-pixel */
"32 32 61 1 ",
"  c #1E1603",
". c #221803",
"X c #231903",
"o c #251A03",
"O c #251B03",
"+ c #261C04",
"@ c #281C04",
"# c #291D04",
"$ c #2D1F05",
"% c #2F2005",
"& c #302105",
"* c #332305",
"= c #352506",
"- c #392807",
"; c #3B2807",
": c #3D2A08",
"> c #3F2B08",
", c #402C08",
"< c #422C08",
"1 c #432D09",
"2 c #452F09",
"3 c #473009",
"4 c #48310A",
"5 c #4A310A",
"6 c #4C330B",
"7 c #4C340A",
"8 c #4E340A",
"9 c #50350A",
"0 c #50350B",
"q c #52360B",
"w c #53370B",
"e c #51360C",
"r c #53370C",
"t c #54380B",
"y c #53380C",
"u c #54390C",
"i c #573A0D",
"p c #583B0C",
"a c #583B0D",
"s c #593C0C",
"d c #5A3C0C",
"f c #5B3C0C",
"g c #5B3D0E",
"h c #5D3E0C",
"j c #5D3E0E",
"k c #5E3E0E",
"l c #5F3F0F",
"z c #5E400C",
"x c #61400C",
"c c #60400D",
"v c #63420D",
"b c #60400F",
"n c #67450E",
"m c #68460E",
"M c #6A460E",
"N c #634310",
"B c #644310",
"V c #674410",
"C c #684510",
"Z c #6B4711",
"A c #6C4811",
/* pixels */
"issfte:#,i4tssejiiiiji0js6ets6ie",
"icsjcst%0sjcBcccccvcCcVvBBssiiii",
"isjte6,*:0jcjszsjicjjccVCcjbkkii",
"sje844,+:444iees0ieiiijAAjjjgssi",
"sjjssi:*56ifsjccvmcvCBmcNkssssgi",
"svjcss6#56ihcjjsjjfjjjcskse6t6eg",
"seisee,*:68t0t8ss06ii73wi6eiee6i",
",:,**@.+%$%*::,*$*#@@X%X#*%*=*:-",
"sfeejjj0dh08vht6ft08st6@:6esesee",
"sfjcvcmnmmmAMMAAmvxjfce@6eecjccj",
"hjjjvAAAAAmcvcmjfxhts66$e6sBcisi",
"fjjvvvjcvzdzjt0tt06et6:,;34866se",
"fijcBBcBvBmVVVmBvvxjsf5%qttgjjjs",
"ifjejsfjjBcjjcxjjjxffs6o66cfjjss",
"00sit6ss84404466te0sq6,@6sssssie",
":,:*#. .X+*%*:*$%=*%@@@.@@*,,2,:",
"gs6iei6ttssssss:#:eesieejssessse",
"VBBsiigtstjfkkes*isscBcccccBBVvB",
"VVjjBggstgsjt64:%:6fcjfcjssjfsvc",
"AVgbggbstgje664,#,256s00siteessj",
"Bcckgststsksfft:*5esisjxccBVBcCV",
"skst6i6essBkcjs6$26scjjfjjjjkkfc",
"tg6tqeq6istgkeq,%:66tet6sse6es66",
".#%%***:-:::*%@o+$#**::,*$%@oo+$",
"@,6tses6esss6fcstfjsevjeqttt6tt6",
"#6eeckcBcssscccmmmvmAMmAAVcxjjxt",
"#e6sVcssejjjcvAAVAmmjvcvjhchtt68",
",:,665eeisjjvVcccvhhjjsett08tt6:",
"%qtqkcjsssiNBcBcBvBCBCvmCvvcjtf6",
"o66ckssssisssjsfjjccjjvcjjjchfh8",
"@qtssfssue8ise6tj604u7388i0t006,",
".+@*,,,,,,>>*#  ..@*%%:%%%*=*#@@"
};
