/* XPM */
static char *_045dac91b2e4b76e273342650f49282[] = {
/* columns rows colors chars-per-pixel */
"64 64 55 1 ",
"  c #596577",
". c #57667B",
"X c #5A667B",
"o c #5C697C",
"O c #61677E",
"+ c #626B7E",
"@ c #696F7F",
"# c #66717F",
"$ c #6A727F",
"% c #5C6780",
"& c #5D6980",
"* c #606781",
"= c #646D81",
"- c #686F81",
"; c #667282",
": c #6B7483",
"> c #6E7985",
", c #6E7688",
"< c #6F7889",
"1 c #707786",
"2 c #737B86",
"3 c #797E87",
"4 c #707789",
"5 c #757D89",
"6 c #7A7E8A",
"7 c #778087",
"8 c #7C8187",
"9 c #778089",
"0 c #7C818B",
"q c #7D8391",
"w c #82858D",
"e c #86898E",
"r c #898A8E",
"t c #8E908F",
"y c #838691",
"u c #868A91",
"i c #8B8D92",
"p c #908F94",
"a c #8E9194",
"s c #939395",
"d c #989796",
"f c #969896",
"g c #9A9996",
"h c #959599",
"j c #99979A",
"k c #97989A",
"l c #9B9B9A",
"z c #A19E9B",
"x c #A4A29D",
"c c #A9A59F",
"v c #ABA89F",
"b c #A6A6A0",
"n c #AAA6A1",
"m c #ADAAA3",
"M c #B1ACA6",
/* pixels */
"lhapsjky5250iafhfgggssglzzlggkiweiiiaffzzcvMMMmMMmmmmvmcxdstsirr",
"lkkkkkaw755wiassfsghssggzlllfhwwwwiaaaffgzcmmmmmmmmmmmcxzfsarrey",
"lkhskpey002yrtshhsafssszlllgghrwwwreiahsddzvmmmmmvmccnxxlkiewwyw",
"klhhppaai070rasshpppasssggklhhawwereiffsdsgxcvmmnnnccxxgti06336$",
"llkkkhhhsuyyeiskssataiahffhsssseeeiiipsppasgzxxcmbbcxxgga9>;$>::",
"xxxkpkhssairaippspshffaafaasstasreuiiaiirtssdgzxzxxxgfsae2##+#$+",
"llxkksspasppiapfshkkkspaiieerraatweeeewyerssddgglzlgsieew>;,=#>#",
"lllkkhspashshsaaahkkkkhaiyweerrriiyeww08eerpippdffgfse8004:::252",
"jkkkhssaphshhppksfphhfhhayyureerrwq800wweeeeeertpfaie7::,;,:>53w",
"khhssasaphkjhpsssskhgkhharreeeeew0775w08wwwwwweereew5$++++*++:6y",
"shsaassaakkkfkhasshgkfhsppreeeew072253873w6wew0wwww02#XOoo&o+:6a",
"shssapaaakshpkkkhdsdhhhsaarreywq02>$>22533360w66607:$++=oooo+$yr",
"psaappaaapsskkhhhhssskspieeywie85522>:::3252:4>:>>:=-:=-+*-==2we",
"sspapaieiiisppshhhsssssaiiuiiriqwwwq00522>>;+++O=+++$1>+++-++535",
"spaaaaeeiiaassssfpppsaaaieeuwwww0w0075522:+=ooo+-:16662++:++-12>",
"hairieiriiasipptpaiiaaiirwwww8067052:$;>::++..o>260w05:::+oo:1>:",
"ariiuuuraaaaiiiaiirrrreewww080652$2::::;:;+&o.+25366522>#+=+;;>>",
"ippiuuiiaiyiuieiirryyyeywww80w32::2$$>>,:+o*& o>:2::;;>>:;++::#;",
"spauuuiiiyrriiyaiirwwewwwww00002212>>::;o+ooo.oo:#++++;=#;++=ooo",
"jkpaiiiuiiiiiureyuryww00366677030662$#;+#oOo..o++.oXO+ooo;*+o oo",
"khsspiuiuyiiaaryywewww62522253386776<;o+oo&.%.*oo..o.&o*o+Xo+o++",
"ssaiaiiueyiiireeywwyw635$>23255550337;o&oo&&.oo&&oooooo&o.ooo +$",
"aaaiiuuuwyiyeuywwyw063222222$52>22:2<;ooo;;&+oXoooo.o..o.oo o+22",
"pieeyyyyww6wwq00yw033352::222221>:::::;+&o&;+XXoooooo%....XX+$23",
"ppuyww0882287000w803255$##:;;2:,:,;#+o;;=+o&%o+XoOoooo..ooo+:126",
"hiuwe66061$602222221>>>$;&oo=,$>:==$:+;+;==o%.XXXXooX ooXXX-:566",
"ppyuww3688w852:>:;-:2,=+==o++;+,;&=,:#oo=++o.ooooXoXXXoooo+=-@>2",
"irry88668ww$:::=+O-:>:=ooo+;;;::;=o,:+ooo*oX*XXXoo +XX oo &o+O=O",
"ruey666ww88221:+oo+>;#&oo+*,:>,:;;=*+ooo..*o+*%oXXXoo.o o ooX+++",
"ww88336w683861;+*o+$;*=ooo+,>::+++o=oo.o%oooX.XXo Xo oooooo ooXX",
"3631:57662233:==+++++#;;=+=:>1>+oo*ooo*oX.%. .XXXXXXo.o.o  o oX+",
"2361:28821$::++*++:++#;+=*o++=*o&o.ooo=oXXo.%o.X%XXX..oo ooo.o X",
"22522754:+++*O+*=@+==;:=OoXoXXXX&o%oo*+oXXX%XXX.XXXXXXXXXXXXXXXX",
"@2$7252++o&*Ooo+++++-:+oXXXXXXOX%.XoOoo.XXXX...XXXXX.XXX%X.XXXXX",
"::252>>$++++oooo++++++o%XXooXXXXooXXXXX%X X.XXXXX.X.XXX . X.XXXX",
">2:::$+:@++*oo=o+oo+oo .XXXX XXoo.X%.XXX .XX..%X. ..XXXX%..XOXXX",
"1:>-:;=++++oo++=O++Xo ooXXXXXX o  . XX.X.OXXXooXXXXXX XXo  .XXXX",
"$:-:++oo&ooooo=oXX  oo.     Xo ..XX XX.XXXXXX...XXXXXXXX.o oOX X",
">:$:-+ooooooo XXo Xooo    o.X XXo%X XXXX .XXoX oXXXXX XX.oo  +OX",
"3621+ooooOXXXo+Oo+oX.o .ooXX oo XOOXX.XXooXo.oooXXXXXXXXoooo XXX",
"6661@++OXO OOXooOoX Xoo XXXO OO XO  XX XXXXXooXoo. .ooooooo oo o",
"5321$oXXOXXXX   oXXXO  OOXXXXXXX XX  .XXXXXX. o o oo . .  oXooo ",
"52::++oX XXXXXX  X X .  XXXX    XXX XXXX XXXX XX oo.o  .. .. oo.",
"2$@++X+oXXXXX   XX XX  o  XXXXOoXXXXXX.XOXXX XXXo.o.ooooooooo oo",
":-+Oo+XoXOX%%XXXXX..X.oXX  X X  XX..XX.%XXXXXXXX.o...o. ooooooo ",
"-+=oXXoXXXX%XXXXXXXX.X. XXXX%XXXXXXX....XX  X%XXo.o ooooooo o oo",
"+o*oX.XoX XXXX.XXXX.XXoX XXXXXXXXoXXXXX. XX.%X%Ooooo o.ooo.ooooo",
"XX.oo.  .X.XXXXXXXXXXXXXXX XX X XXXoX  XXXXXXXXXo+,:oooooooooooo",
"XXXXoXXXXXXX.oXX.oXXXXXX. X XXXXXXXXXXXXXX.oXX o$27q>oo+ooo.oX .",
"XX.%X.X..X%X%XXXo.XXX.XX. XX. .XXXXXXXXXXXoo o*:20004+oooooooXXo",
".%.oo.%.X%.o%.X%.%.oXX.X..X.XXXXXXXXXX%oX%=#**+#4q001+oooo .X.X.",
"X.X%%&..%X.o*o*OO%*oXX%XX...XXXXXXXXXXo.OX&=oo=:5509>=oooX.o....",
"%%ooo.%%Xo%oXoX%.**+o%%..%X.%%XX.XXX.%o%X&*oo=>45522-ooooXX XXXX",
"%o&%%%o%.oo*oXoo&o+o%oooXX%..XXXXXXX.o%o.**&+:6542>,+*+++o+oX%%X",
".%%ooo.o.o.&&.X*o.o*o*=oX%XX%XXX%%%%&oo+o&++:46w022:-=+++++O+oXX",
"%+oooo*o%.%oo%Xo%%oO+&o**%XXOX***%%Xo&;:==:25500075:-*++++++OOOO",
"ooo&o+o+::+oo&oo&o*+Oo&&%o.oooooO=*==:,:-:<>70w6007>==+++Xo+++++",
";252>152652:+o*+&:,=o+ooOo%%+,==-=-,,>,-=>,200860q05>+o*X++oXo +",
"50660w0065>+*%o*:5>7,+=o&oo,52;&-:1126>>:>2700w0qy004:oo++XO+X+o",
"56360w0765:+==+:>7qq5>,=-::2705,565555542750q06wwq5222>#+++O++OO",
"5557666272>:=;>5qeqqq05,;:>7qyy00qq87052270ww0w0w85522::@++++ ++",
"5522225652<,;46wyuuu005>,4qyuuuuq77755>25008ww67352:2::-+@++OOo+",
"7:#::23070:-;50yyyrqyq0596yuuuiy8522555>5700667855:::-@-@O++++@#",
"6::-=:27802>50wyuiqy0924qyuuyiyw07257522>56075725>$=-:::$-$$$$$@"
};
