/* XPM */
static char *_aa1fd4a6fe446e69e8049be066f0bbb[] = {
/* columns rows colors chars-per-pixel */
"64 64 129 2 ",
"   c #333D46",
".  c #35454C",
"X  c #3D444A",
"o  c #3D494D",
"O  c #3F4C55",
"+  c #3F565E",
"@  c #40494E",
"#  c #404E56",
"$  c #495359",
"%  c #445660",
"&  c #475965",
"*  c #495B65",
"=  c #4B5D69",
"-  c #505E6B",
";  c #4E616A",
":  c #536066",
">  c #52626D",
",  c #5B666C",
"<  c #4F6575",
"1  c #4C6876",
"2  c #4F6C7C",
"3  c #556674",
"4  c #536972",
"5  c #586A76",
"6  c #546C7B",
"7  c #5C6C79",
"8  c #577075",
"9  c #57727F",
"0  c #5B717D",
"q  c #616F7C",
"w  c #60727E",
"e  c #557284",
"r  c #5C7482",
"t  c #5E7886",
"y  c #5C7789",
"u  c #5D798A",
"i  c #5E7D91",
"p  c #637583",
"a  c #627A86",
"s  c #637C8C",
"d  c #687E8E",
"f  c #637E91",
"g  c #5D8191",
"h  c #65818E",
"j  c #6A818E",
"k  c #658294",
"l  c #6A8494",
"z  c #6D8997",
"x  c #668699",
"c  c #6B869A",
"v  c #678B9E",
"b  c #6D8A9C",
"n  c #728596",
"m  c #728997",
"M  c #718C9D",
"N  c #76909F",
"B  c #7A919F",
"V  c #6E8DA1",
"C  c #718EA2",
"Z  c #6E91A4",
"A  c #6D92A8",
"S  c #7392A5",
"D  c #7994A6",
"F  c #749AA7",
"G  c #7595AA",
"H  c #7996AB",
"J  c #7699AD",
"K  c #7A9AAD",
"L  c #7597B0",
"P  c #769BB1",
"I  c #7B9DB2",
"U  c #7D9FB8",
"Y  c #7DA1AF",
"T  c #7DA1B5",
"R  c #7EA2BA",
"E  c #7FA6C1",
"W  c #7FA9C1",
"Q  c #7EB1C6",
"!  c #809DAF",
"~  c #819EB3",
"^  c #829DB8",
"/  c #84A1AF",
"(  c #81A2B6",
")  c #82A5BB",
"_  c #8AA7B9",
"`  c #84A9BE",
"'  c #89AABE",
"]  c #83A7C1",
"[  c #85ABC3",
"{  c #8AADC4",
"}  c #86AFC9",
"|  c #8AAEC9",
" . c #94AEC7",
".. c #90AFCE",
"X. c #87B0C6",
"o. c #8BB1C6",
"O. c #86B1CB",
"+. c #8BB3CC",
"@. c #85B8CD",
"#. c #8CB8CE",
"$. c #92B2C7",
"%. c #91B6CE",
"&. c #93BACF",
"*. c #98B8CF",
"=. c #8DB6D1",
"-. c #8EB9D3",
";. c #8FBCD9",
":. c #91B6D1",
">. c #92BBD4",
",. c #9ABED5",
"<. c #94BEDA",
"1. c #98BFDC",
"2. c #97C0D6",
"3. c #9CC1D6",
"4. c #95C2DD",
"5. c #9AC3DD",
"6. c #96C4E1",
"7. c #9AC6E3",
"8. c #9CC9E5",
"9. c #9DCCEA",
"0. c #9FD0EE",
"q. c #A3CDE6",
"w. c #A1CDEB",
"e. c #A3D1EE",
"r. c #A8D1EF",
"t. c #A4D4F2",
"y. c #A9D6F5",
"u. c #A7D8F6",
"i. c #ACD9F8",
/* pixels */
"%.3.2.1.<.=.) K C f s M G K I I K ) ) R R R R L T T R [ { ] ) U ^ K J G K P I I T J T L T T I J P J J U I ! K ^ G G S D S I | | ",
"` &.>.+.O.+.] A d 3 % h ! K K ) U ) ^ ] } ) ` ) ` R ( [ ) ` T I J S I I S I K K T / I J J J K I / J K K P ( D S P K G C J P { ..",
") ,.3.+.X.] ] J a 4 r K | [ P R } [ ] [ ] ) T R J R R T U K G S J P D H S G K K I K J / P J K D J I L J J J P L U G G J K U [ +.",
"/ $.3.%.+.+.{ D D d u v ) O.;.#.{ X.R Y P ( P ( R J Y S J J T U P C S J J K G V C G C I K K ~ G D ( K I / Y R K ~ K G G C ` +.-.",
"` I o.` T X.` G n l s r s b S ^ Y ( T S ! ^ K H P K J G Y C V S G S G D S C G G S P H K D H K K I J J T K K U K D ~ J b G { ;.=.",
"+.( J ( J C D h s h a 8 = 0 r b Y J G A V V C V M M M z c G H b b D C b D N D S b b b b V V C V C S G I H D K I ) ( P S S R { O.",
"<.` T T S x k S ( K h 0 = 3 a d b S F Y S n M D M z l z n M c l c c c l d l j m m z h s k l z z Y ` I P R T X.@...[ I L C P { :.",
">.X.' _ D c M H B D l 5 = - 7 0 n B h 0 0 > % * 9 h N N l z D M S S s 9 5 < 5 a H ~ N d d s l c P +.5.+.=.-.4.2.4.<.} ) ` P J A ",
">.+.J S M l c l h z l e 0 * o X $ , : # o $ @ @ . . * 6 6 < s l h a l p p w 5 = 9 u N c f u f d 9 6 l B n d t k i x P { { K S V ",
"=.:.I k b x x f x S / Y S a % #     # * > 3 q q 7 p 7 & > - * 4 0 s m N M x x M u d D ( ) ^ ( I S f s m s 3 & & r a l u d V n S ",
"-.*...U T T T ) P R X.[ ` ( M t 7 5 0 l b V c S D N V l x n d u y s u S K I T ( I D K P ) { I P J V g x M z c l c B k b b x S J ",
"O.+.:.>.=.} :.:.>.O.O.#.[ [ ' G C C I ) ) ) } } } ] E } } X.} [ [ [ ) ] { { O.+.X.} X.O.=.:.O.{ [ [ I T ) U ) T T [ Y L ) U E [ ",
"{ } +.1.>.2.@.O.O.@.-.O.@.X.R X.] [ X.@.#.O.O.O.+.=.O.+.+.=.=.@.>.=.....=.>.:...;.=.;.-.-.=.O.-.+.@.+.....{ | ....O.:.] ] { [ } ",
"] =.+.=.<.#.-.O.;.#.=.-.@.-.=.+.:.O.R [ +.:.O.+.O.1.,.-.;.<.=.#.+...;.:...;.;.-.<.7...>.;.#.#.X.>.>.1.-.>.-.-.=.-.:.O.%...O.+.>.",
"+.-.5.2.-.-.>.>.+.O.R #.-.;.4.1.>.=.=.=.>.>.4.-.-.=.4.6.;.4.6.;.;.;.1.<.;.;.-.=.| :.>.-.#.>.#.+.} [ } @.-.#.O.Q ;.-.O.=.X.O.O.+.",
"-.2.6.>.4.4.5.1.>.1.1.>.>.4.5.5.8.6.;.4.7.9.8.4.6.4.<.6.;.;.6.8.9.9.7.4.7.5.1.#.O.X.{ X.O.+.%.<.} ] { +.O.@.+.E X.+.=.+.} E [ [ ",
"X.1.4.7.4.4.6.6.O.4.6.;.O.;.7.4.<.9.7.4.4.-.-.;.=.#.[ #.#.X.+.{ | } | } ] [ { { R P ] ) ( [ R { | %.{ ) +.+.-.@.+.*.*.[ =.>.<.+.",
") A L R -.R P [ *.@.4.<.+.-.#.O.P ` %.` I ` R L U ) P R [ ( I G G U ) I L L I K L G S D G G Z P U U ) J U P T X.O.R X.%.O.O.[ [ ",
"o./ T { { %.X.+.&.3.o.&.>.R R T I T ( T ( I ( ( ^ P I T P G K K D I P K J S K I G J G b I S Z C K J G S C I T ` J Z U ` T T I K ",
"+.%.[ ] ) ] U L J Z K P J G G T P R J L ( K I I C S S C ! K G S P S D K K U K I I C I J b F K G H K S J Z S { _ K K G I I G G K ",
"[ O.} ] R U ] L G b Z P G P K G P J J G K G J V c l b D D I I U D S S S C V S C I ( G / K G P J K ^ S V G M b S S K S b C H D D ",
"R [ I ) ) ) J ) I P Y Z K Z S J K G S K S C H S x M D V K I I J G S S K J G S x C Z Z S T D J K S V I S b C 6 s D D D D D K D H ",
"A P I I I ) ` ( ( R T R Y ( J G S H S S K D I H ~ ) ) I G S K K J I G L S Z ( ( / P I K G G T T U K I I J D I K b S C S S V D S ",
"$.( ^ { [ ) { [ O.R R T I ( ( G K K F C K P S ) U K H G K H S A G A G S G J S S J K G G I G G C I J I ' I P G D K J D V n V b C ",
"_ ] I I T L P T I ' I I J G J G I T T J S G Z D H K S I S S S H G V C S J I I K P C G S b I G G J / U U P G C C G C S z x c S D ",
"k S ^ H J S Z S G ( I G T R J Z G ( P T U S J P H S I V S P J G G T I I F K I K S D C S b S F K G G K G H Z C C G C b M c M M D ",
"V S G S G D J K ( ( ) ( V G ( ` Z S K P S U S S H D S C S C H K J J C I K b C I T I D K K G I J I K S S D S S A M M b G M c c M ",
"H G G K ~ K I H V i D P T K J I R ` ' D H J J G H I I I S S C C G G F G K V K I P S K G J S K G b C S V C Z Z V M C M C b V b c ",
"K G H H J K H K C V G K I S K J Y S Z G J G ( T C G D G D S H V V S I P I U I G I G G S K I S S S K D C S K S G S b V B D D x k ",
"K J H H J G L L H K G G S I G P J ` ` Y J T P I ^ I K P P J S V G D ~ K b b V G ^ I G S C S C H S S H P S Z C S S V S b C M b c ",
"H K J L S C H K K G S G G J J Z G A P R ` ( R R _ ( ) I K ) K ^ K K S K H D S S K G J K H K S V K C S ~ S S G D M S H S G C b m ",
"K K K L K K G G P ^ ^ D D S C K G F A G T I P T L U I ( ^ K ) K G K G S K K I K P H I S H I H K C ~ ^ S D G G S D S c c c b C n ",
"G J D K H P K K S x S b b D G I J G K S K L I I L T P I I I ^ K S G G S K K / K J K U D J K J S S S A S K C C Z B C M c z c b S ",
"G S H K H G C P S J Z F G G G P I P ^ K G K K K I / ) I I I S K S Z J P G K ( I I S G G G K J S H K S A S K C b Z N S F Z b C M ",
"K G S V G ~ T ( ( T K ( I S T G P ~ L ~ G G K K C V H U ( ( F G I S S J P I K I S Z G S V D J S S D H b C C M c M M Z N N S S M ",
"K K D G S C G V K K K K T I J V S G G L G K G H S J C U I G Y K T J G S H S C D / I P K K G b k l m M C b M b l b k z C S F S S ",
"V G S H D G I K J G S Z b G Z S S P H C S L S S P / G G ` I I J K P I K G S K I ~ K K K ~ ~ S c c n M l t k z M C b M G S G C S ",
"J J G V V S D S Z S P T G D J K C S H S K K I K G G U A ^ ^ P T T T S G G G H K G C C b b ! / ~ C k c l z M M N G S S S C b C S ",
"S S P K K G V K K T K K I G G S S c S D G S V Z K S D V x K H K G / K ~ K G H { _ H D S M C D H S c b S Z K G ! G K Z b C C C M ",
"A H S S ~ I S C S D G D D G I D D S c S C V C x n b D C c c V c V G K K ^ K C C ! K ! H G b k z D G C G M b G G G I G F K S F b ",
"V H C S G G G C C V C V D Z x C c C D M c c M b c c h d M b b V V b A Z M K K z c b x c l l n k V D S L J V G b C F P F S D D M ",
"V S ^ H H c C D D C D K x S S G J C C S b c C C t t 0 r r m N M V M C D G c c M k c l z l l M M Z D J T H Z S J F M b C S S M C ",
"H L C M c S C C H D b S S b V C H D c H H D M l r 6 a l t t d s d m M l l s j l l n M N K S G D b b S S C D C D ! I ! D C S K D ",
"C c C M L C S D S D H H b S S S l D S M N s t 9 s d f e d 2 1 s d f l y y h y h f x D x b C Z S v v V x V Z C S C C I D S G K K ",
"G G S S H ! H S S S V V I M C M Z C x g i C F T K ) { ' ` +.( D M D S M S D ) H ( R { T U ] X.+.-.+.&.X.{ [ U J Z v S J J S S L ",
"S S G G S L H ^ I K K S G Z V I ' { $.{ ` ) ` o.X.R ) +.I P A A J V L I ( ` { -.<.@.X.<.:.} ] ^ [ X.X.$.%.:.{ ) ) I I I U I R ( ",
"{ o.{ I K ^ ^ ] _ ) ) I ) ) ) V c C S K S C V H L V v S S V V Z G V V V C b b S P J V L J S J S S S V Z A ) { { } [ ) [ ( I I ( ",
"T ( P { ^ I H ^ G G I I Z D G S b x b V D G K G K H D c D c D G H H H H J G J J D G C D ! D K K D G D I J S G L I U R T T I J K ",
"V b C P K F G V S D H S C C S H S S G I J J I J K J J K G I I J I I J J S K K H S J G G J S C J I J S S G S J G D S C S S H H K ",
") ~ H K P L K K I G K K L H S S K H G J G K I I I G J P I U P I L L L I I I I U I T T I L L L P J I K L ) H U S H K Z J K H C S ",
"[ [ { [ ` R T Y I K T ` [ ( ] { ) [ ] [ ) U I I { ] ` { } O.} [ X.O.[ O.O.O.[ } O.@.#.O.O.} O.} ] } ] [ ] ] ] U R [ ] I U U U L ",
"1.2.>.O.#.#.O.#.+.>.O.O.+.+.>.1.=.-.-.2.5.5.>.-...:.;.=.-.4.4.;.<.4.1.6.7.8.7.6.6.7.7.7.9.7.7.6.7.4.4.7.;.4.;.<.1.O.} [ ) ] ] [ ",
"-.4.8.8.6.4.6.7.7.7.6.>.;.8.6.9.u.9.9.7.7.t.e.9.<.4.4.4.6.6.4.4.8.8.8.8.e.r.u.0.t.0.r.0.t.t.i.t.u.t.0.t.y.0.i.y.t.w.q.:.U J P { ",
"0.t.t.9.t.0.6.4.7.7.7.5.1.8.9.9.0.9.0.u.t.4.;.r.9.9.w.w.t.t.t.9.r.9.t.0.e.9.0.7.9.7.6.1.8.8.8.8.7.9.w.1.7.7.7.7.t.r.e.1.[ L U J ",
"t.u.t.9.9.9.9.7.O.O.>.7.7.1.6...;.9.9.8.q.7.7.r.w.8.5.<.2.5.5.-.-.@.;.>.=.O.@.O.} } } [ } } } O.| O.} E [ | ] | +.1.7.r.1.} } } ",
"6.e.0.t.0.0.r.r.q.5.1.+.[ ] O...<.2.-.-.O.) O.=.O.X.%.O.[ R [ [ R R T [ [ ) ) E R R U U ) ) R ) U U L R ) ] R ] [ O.7.e.i.e.6.9.",
"P *.2.q.r.7.+.=.1.X.` ( G x ) { O.%.{ [ { J T Y T U T I T R Y P T ) I I ( ` T R T ) ) R R ( T ] ` R R R R ` { ( [ ` >.5.w.w.w.<.",
"f h G X.>.O.A f K I P U S G ^ ] ) I ` U ( ( I Y ( ) P F I J L Y ( I I I T R T R R I I L T T U ) R Y T T ` I ( ` ` ) [ :.1.1.4.7.",
"S n h N K I b K U H P I J J P S S G ) ( ( ` ( [ T I T T I J I / I I T T T T T Y P R R T P T T T ` ) R T Y R ) ( ` ) ) +.>.5.1.=.",
"Y / h k S K D H ( ) K K ( Y J C M C S I T K I ( T J P Y P P P I I P I T P Y Y P T T R ` [ T T T R ` ( T I P P T ( T U U { { [ P ",
"C l D S J P K G / { ) I L Z G S C C G G P J G J I T T P J R P Y T T T U T I T T U R P R T I T T T P ( T ' R P Y I ( ) R ( P I { ",
"S D S l b D K M P { H A P P G b M l k x D ) Y J I Y T I J R T P P T I I U I J J R R I L P T R J T Y T J P I ( ( ( ` ( ) ) ` R ( ",
"c H C S I I G S c G D S J R ` K c x C I ` ` ( R Y J G G G J T J I ( U K I I I T I I T R I P T R ` ( T R P R P P Y R ` ` T ` ` T ",
"L V V ` o.( I M C M M b C P ( / ~ D ) U J P I J I R T T T Z Y K J P P D K I T / I L T I I T T ( ` ( ( ) T [ R [ ) R R ` R T I T "
};
