/* XPM */
static char *ad947c4ae2824db28c56263a7b9aaa53[] = {
/* columns rows colors chars-per-pixel */
"64 64 256 2 ",
"   c #3F352C",
".  c #4A382E",
"X  c #585B2E",
"o  c #584437",
"O  c #5B5B35",
"+  c #614D3B",
"@  c #66593A",
"#  c #765A3B",
"$  c #5F6234",
"%  c #5C632F",
"&  c #676C2E",
"*  c #6C752D",
"=  c #656B35",
"-  c #6A6C34",
";  c #6B643D",
":  c #6C6B3B",
">  c #656537",
",  c #736D3D",
"<  c #75683A",
"1  c #6B7235",
"2  c #6D743B",
"3  c #6C7633",
"4  c #727436",
"5  c #73743C",
"6  c #79743D",
"7  c #747B3B",
"8  c #7A7C3C",
"9  c #747B34",
"0  c #757E2F",
"q  c #5A4C45",
"w  c #655243",
"e  c #6B5A43",
"r  c #6D5B4B",
"t  c #695647",
"y  c #745B45",
"u  c #7C5A45",
"i  c #735B4C",
"p  c #7B5D4C",
"a  c #765646",
"s  c #745D51",
"d  c #7B5E51",
"f  c #66544A",
"g  c #6C6443",
"h  c #6C6846",
"j  c #736343",
"k  c #7B6444",
"l  c #746C43",
"z  c #7B6B44",
"x  c #75634B",
"c  c #7C624D",
"v  c #746C4A",
"b  c #7C6C4B",
"n  c #747442",
"m  c #7B7544",
"M  c #757B43",
"N  c #7B7C43",
"B  c #7B734C",
"V  c #7D7B4A",
"C  c #75754B",
"Z  c #7C6353",
"A  c #756B52",
"S  c #7D6B53",
"D  c #7D6C5C",
"F  c #786658",
"G  c #7C7453",
"H  c #7B7755",
"J  c #6C6255",
"K  c #7C6C63",
"L  c #796C68",
"P  c #7D7467",
"I  c #7E7673",
"U  c #6E6461",
"Y  c #807C3F",
"T  c #825D4A",
"R  c #805F50",
"E  c #82634D",
"W  c #836D4C",
"Q  c #8A6B4D",
"!  c #827D4A",
"~  c #85774A",
"^  c #836453",
"/  c #8A6553",
"(  c #846A54",
")  c #846B5C",
"_  c #8B6D5B",
"`  c #886857",
"'  c #936F5B",
"]  c #916A56",
"[  c #837453",
"{  c #847B53",
"}  c #83735A",
"|  c #8C725C",
" . c #857D5B",
".. c #8A7B5B",
"X. c #8A7854",
"o. c #93735D",
"O. c #927B5C",
"+. c #987558",
"@. c #936F4C",
"#. c #A57C5A",
"$. c #866E64",
"%. c #847364",
"&. c #8C7465",
"*. c #8C7A63",
"=. c #84756C",
"-. c #8C756A",
";. c #8C7A6C",
":. c #847968",
">. c #937564",
",. c #9B7562",
"<. c #947B65",
"1. c #9B7B65",
"2. c #92766B",
"3. c #947B6C",
"4. c #9B7C6B",
"5. c #8C7B73",
"6. c #857975",
"7. c #947C72",
"8. c #9A7E72",
"9. c #937B75",
"0. c #A27B65",
"q. c #A17F73",
"w. c #7B853C",
"e. c #7B8539",
"r. c #7B8242",
"t. c #7E8A44",
"y. c #7E854B",
"u. c #7F8257",
"i. c #828C3C",
"p. c #82873C",
"a. c #85913C",
"s. c #89963A",
"d. c #929D3C",
"f. c #94A23D",
"g. c #828443",
"h. c #838B44",
"j. c #83844B",
"k. c #8A854C",
"l. c #858B4B",
"z. c #8B8B4D",
"x. c #8A8946",
"c. c #859344",
"v. c #8A9544",
"b. c #8B934D",
"n. c #8B9848",
"m. c #92944D",
"M. c #949B49",
"N. c #868252",
"B. c #8B8454",
"V. c #8B8C53",
"C. c #8B835B",
"Z. c #8D8B5B",
"A. c #858956",
"S. c #938C55",
"D. c #93845B",
"F. c #938B5B",
"G. c #99885A",
"H. c #8D9453",
"J. c #8E9755",
"K. c #939453",
"L. c #959C53",
"P. c #9B9C54",
"I. c #94925B",
"U. c #9B945D",
"Y. c #9C9B5C",
"T. c #979957",
"R. c #928D4E",
"E. c #A7865C",
"W. c #A7985D",
"Q. c #B3905D",
"!. c #99A446",
"~. c #9CA355",
"^. c #9DA35A",
"/. c #98A358",
"(. c #A2AB44",
"). c #A2A45B",
"_. c #A4A95C",
"`. c #A7A759",
"'. c #A9B15E",
"]. c #A6B246",
"[. c #8D8664",
"{. c #928363",
"}. c #9B8C64",
"|. c #94836D",
" X c #9C836D",
".X c #9B8C6A",
"XX c #968966",
"oX c #9B9364",
"OX c #9C946B",
"+X c #999666",
"@X c #8C8374",
"#X c #948273",
"$X c #9B8273",
"%X c #9B8C73",
"&X c #93837B",
"*X c #9C837A",
"=X c #998B79",
"-X c #9D9476",
";X c #A68769",
":X c #A39364",
">X c #A49B64",
",X c #A3936B",
"<X c #A49A6B",
"1X c #AB9B6B",
"2X c #AA9667",
"3X c #B69769",
"4X c #A38777",
"5X c #A49474",
"6X c #A49B72",
"7X c #AB9C73",
"8X c #A4937B",
"9X c #AB9C7A",
"0X c #AA9478",
"qX c #B69A76",
"wX c #B28C66",
"eX c #9DA563",
"rX c #A4A363",
"tX c #A9A867",
"yX c #B7A46D",
"uX c #ABA273",
"iX c #AAA676",
"pX c #B2A373",
"aX c #B2A47C",
"sX c #B5AA7C",
"dX c #BCAC7C",
"fX c #BAA876",
"gX c #B7B179",
"hX c #B0B66B",
"jX c #C39C72",
"kX c #C4A679",
"lX c #C3B37F",
"zX c #C2A069",
"xX c #B1C063",
"cX c #998B83",
"vX c #9C9483",
"bX c #AA9A84",
"nX c #A89586",
"mX c #AD9585",
"MX c #ADA584",
"NX c #B3A482",
"BX c #B4AA83",
"VX c #BBAC82",
"CX c #B7A88A",
"ZX c #BBB287",
"AX c #BAAB96",
"SX c #BCB395",
"DX c #C3AC87",
"FX c #C5B589",
"GX c #C3B493",
"HX c #C7B997",
"JX c #CDB392",
"KX c #C9BBA3",
"LX c #D2BEA5",
"PX c #CFC197",
"IX c #CBC3A4",
"UX c #D9CAAF",
/* pixels */
",.+.,.+.+.,.>.>.' 8.8.5.5.=.&.4.,.4.2.0.$X,.+. .r r J F L 5.K D <...S t w r i a p a @ w a T # T T T # a u a i i t W K.B G M.`.P.",
"+.,.,.,.' o.' ' O.7.&X9.=.5.2.4X1.4.' <.4.| @.3.A q %.;.L I K K D.O. .g r f x Z c d u a o a u T T u a T R p s a f x P.b.c.P.'.T.",
",.#.,.,.' ' 1.,.2.=.=.7.2.-.2.q.>.,._ ,.8.1.+.<.D q J L I I L F *.<.X.e r t t Z d F ^ ^ / T T T u u T a a p s r x V P.`.~.).tX/.",
"' ' ' ,.o.<.$X1.1.$.L 5.3.3.2.4Xq.1.>.4. X;X0.;XH f f U 6.6.L D } X.X.@ r Z ^ s Z ^ / / ] ] T T T T a T i a r t v { K.I.U.rX/._.",
",.' ' ' >.' &.<.2.$.$.;.2.2.<.8.q.4X1.>.$Xo.+. XH K J J P 6.;.S <...O.f t s Z Z Z d s f + i d / u a a a i p c x D  .T.H u.~.~.gX",
"' ,.2._ / >.| 2.2.-.%.2.8.5.-.8.8.8.4.8.4X,.+.*.C.A F P 6.I =.%..X}.O.e t + i F d s f q q + / / R a a p p p z h C ~ z.j.F.~.^.'.",
"0.>.` _ ' o.4.<.2.#X7.2.8.2.-.2.7.8.4.q.4X] ' ` w r D U =.6.K %.{..X-X@ o + i Z d d f f s i d R a a i c c W c r V.R.R.T.rXP.~._.",
"0.>.$._ ,.4.8.2.3.2.-.9.-.7.8.8.>.,.4.4.q.R +.3XG v P L =.6.K ;.5X..{.# r w f s Z ^ s s s ^ p p p d R p E ` c B ).T.m.).rX`.~.P.",
"' O.>.>.o.1.3.2.>.2.5.9.$.K >.8.4.4._ -.q./ @.qX[.A H =.6.5.;.|.NX.X{.e S t s F d d Z s d ` c d R ^ / d d x r e k.x.j.Z.I.~.P.~.",
"' >.$X| ' >.<.&.2.$X8.5.-.%.2.2.9.q.` ^ 0.' ,..XA A A U L 5.{.|.5XoX.X# r w r x ^ d Z Z i E / Z ^ Z ] ^ a y r i S.^.b.k.L.`.`.`.",
"4.4.3.3.1.' 2.&.2.*X*X*X*X7.3.-.2.0.2.` 4.0.0.4XC b A A U =.%X|.6X,X}.v r t + t i c ^ Z p T / d ) ` ] / d c r A R.!.H.T.'._._.`.",
"4.0.8.7.0.O.-.;.7.=X#X4X4X*X8.8.2.>.9.2.2.,.#.;X} A D %.=.5.|.|.5XOXD.j t + r r c d ^ ` / / / ^ ) ` d E c d r x G.K.B.eXhX_._.).",
"1.4.3.3.4X,.<.2.;.5.=.3.3.#X&X8.2.,.-.$.1.' +.7XG S 1X,X=X&X%X|.5XXX .g t t J x d Z ` ` ) c R R d ^ K R T / F A R.J.A [.tXtXtX^.",
"4.4.8.8.1.1.8.2.%.=.%.%.$X*X4X$X8.2.$.9.4X#.,.0X .b }..X:.&X|.@XOX{.{.g e w + @ i i Z Z Z c R ^ R s R R d c ^ { K.L.C h S.tXeX'.",
">.4.<.$X<.>.2.2.%.$.=.;.3.8.7.7.2.2.2.-.4.+.E.3XoXC.} D :.=. .@X5X.X .j g e + e i Z F d c / ( ` ` R R R E c F G B.K.y.n K.tX'.^.",
"3.4.3.3.<.| 3.$X7.5.&X8.8.$X9.7.9.&.&.>.2.' E.JX..H *. .-.L D %X,X..b g x g j x c Z _ F ` / ^ ` ` ` / / E ^ F [ K.P.T.n.!.)._.L.",
"&.;.4.4.4.>.7.<.3.P =.9.$X7.*X$X*X8.>.2.9.0.wXjXX.e A [.5.P D -XaX6X{ g b x F r Z ^ Z ^ / c T E R s R / / ( F C.V.J.^.L.~.^._.H.",
"| %.<.,.>.$X3.7.5.=.%.P ;.3.*X4XcX*X2.3.8.4.wX3XoX<XC.[.5.&XP @X-X9X.X; S } %.D Z F Z F ` / c / ` ` ^ ^ / c r D H V.^.^.tXhXeXJ.",
"| &.-.-.O.3.$X#X9.#X7.-.*.9.9.9.2.-.2.5.$X;XwXQ.G.}.oX@XcXnX:.&XCXBXoXl [ <.&.) Z F ) ) o.| d ` ^ ] ^ R ^ F s h A.^._.Y.rX_.'.eX",
"&.%.&.&.&.-.;.&.|.#X5.2. X7.#X*Xq.4.1.-. X1.0.W.m v 7XCXcX#X&X%XCXZXXXl } } *.| #.' D ^ / ' ` ^ ( Z ` ` / } v V H./.>XeXeXhXtXeX",
"%.) ;.#X>.$.D D -.5.5.@X$X7.9.7.*X4X4.,.$X<.>.2XV.{ O.9X@X&X0X|.GXsXB.z E._ D } | | $.) _ _ _ p Z ^ D ` ^ ( b { I.y.A.T.hXtX^./.",
"<.*.;.3.2.<.%.&.-.=.5.&X*X8.2.5.4.>.7.q.1.#.wXE.b G H  .P 6. XbXFXsXX.g G.1.d F ( ) $.&.$.2.$.T s W Z Z } ^ k W J.y.J.hXhX/._.eX",
"*.&.$.) | ;.-.<.4.=.=.9.nXnX8.*X4XwXq.4X4.#.wX1X .H [.8X=XP >.NXGXBX{ h [ @.s i ) ) &.$.) F ) c c y x b ( W { l Z.l.J.eX/.^.'.^.",
"*.&.P D } %.2.$X X4XcXcXcXnXnX4XNX3X;X0.0XE.wXW.V C.[.vX-X=X XBXaXaX .< W k  ./ ) ) ) ) r e d s _ _ x z v [ k.B  .V.H.T.J.J.^.^.",
"=.;.:.*.<.3.#X|.$X&X&X&XcXvXcX*XqXqX2.q.4XwXwXyXO.V }.%X&X|.XX0X6XuXD.G W W b +.[ Z ( <.F c y d F D ^ b x [ N.{ } +XJ.tXJ.y.J./.",
"=.;.;.%.%.=.;.*. X5.6.I 6.5.9.9.4XqX2.8.;X#.3X2Xz B C.XX5.cX0X9XaX>Xv X h A z # k y / O.[ %.W ] Q y y x x j k.j.M y.V.H.T.J.H.L.",
"*. .#X-.K } ..&.@XcXI I 6.6.9.cXq.4X,.9.E.@.3XlX}.B.G {.bXMX2XyXuX:X{ @ ; k B.W j y # j @.O.` c c ( x x b G V V.j.j.z.l.J.V.c.L.",
"*.;X.X|.|.K ;.2.I 6.I 6.cX9.9.cX9.0.0.q.wXT #.kXB { >X9X9XCXfXfXyXU.! l g ; l c ;X( # # @ i } ^ | G b l x A l g.j.N.V b.y.y.b.L.",
"3.;X<.2X5X2.$.%.P I I 6.&XvX&X9.9.>.o. XkX#.+.zXv [ :XaX6X9XlXpXdX<Xu.; h g h j @.g + y e c ` W o.X.W ~ G  ., n V N.F.H.J.l./.eX",
"8X.X.X.X0X X<.<.=.=.6.6.P =.$.-.5.8.&.1.#.Q.Q.fX[.}.}.uXFXaXfXlXVX+Xk.g g g k j j y # @ k Q Q | O.W b H } B z j.n h.T./.tXl.^.J.",
"qX%X-.|.0X X0X$X#X6.P H @X@X;.=.7.;. X,X3XQ.zXdXC [ oXVXFXpXdXFXdXS.N.g B [ G S l ~ X.( E k k c +.y ; Z [ j z 5 5 b./.^.J.h.l.l.",
"1.qXO.} O.<.3.$X$XvX=X%X=X XbXnXmXmX;XwXwXwXQ.qX; { iXOX1XfXDXPXsXS.%XC H l h j , < < ~ @.# # E W < l W c z X.N V L.Y.b.h.l.V r.",
"b | D.G.;.3. X3.&XcXcX=XmXvXAXCXAXCXwXjXjXQ.Q.yXl C.sXY.fXpX6XHX>XB.Z.v G v v j @ > @ # @.< < k ` < ! X.j j m ! g.y.l.b.b.y.y.t.",
"S %X5X0X.XbX0X$X=X@X6.#X1.nXAXnXmXmXjXwXkXQ.Q.lX{ XXoX6XFXpX7XHX1Xj.I.v  .v h j y j ; # z j W m z ~ X.! z l b k.j.j.V.L.r.w.n.H.",
"b .X%X=X.X=XvXbXMXbX X5X0XSXKX*Xq.mXkX;XE.kX3XsXB OXOXuXpXsX;X;X1XV N. .g G : g ; g c l z j W ~ ! z < m : , ~ ! B M r.t.w.t.b.J.",
"XXXX0X8X;X7XbXCXaX8XAXHXCXnXnX8.q.qXqXjXNXCX0XgXC C.+X>X6XGX9X9XW.r.k.[.H {.b g l l z j.m , < W Y X.< , ~ g.k.~ m V l.t.y.L.L./.",
"3.NX%X9X%XqX0X-X8X=X9XCXKXbXAX*XmXDXJXqXJXkXlXyXG F.! F.6X:X}.DXY.A.N.D P V S ; = ; 6 r.m 6 W X.~ 6 z m z.k.S.K.y.H L.J.J.y.J.n.",
"0XBX8X6X8X5X0XXX#X&X2.vXCXnXcX8XKXJXJXjXjXzXfX:XO  .iXoXoXU.1X7XI.6XZ.O $ h : = g g n N ! z ; j W E W , n 6 z.^.b.l.L.y.t.r.t.J.",
"C.uX:XD.:X#X%XfX5X3.nXvX4X4XmXmXKXLXDXqXqXW.qXuXg V uXoXF.BX%X1XJ.OXN.$ g M r.N n : > > g N n e < < < : > R.H.L.V.t.n.M = M y.n.",
"B D.:XF.S.[.%X1X6X%XaXbX*X4XmXAXKXLXjXwXDXlXfXaXh +X<XOXF.7X&.OX6XC l h 2 M h.y.j.m l l g , 7 5 7 x.k.5 : k.r.l.C l./.n.t.w.c.n.",
"{ D.}.S.).rXOXoX,X7X7XNX4X4X0X0XmXAXqXqXDXlXzX1XO  .[.}.1XoXb }.MXM m > = = O M M n m 8 x.j.7 n 4 ! g.: X = 5 r.h./.n.L.n.e.c.n.",
"G.9XS.I.>X>XG.U.G.uXGX7XmX0X0XCXmXDX0XqXjXzX2X<Xh H OXZ.:XsX;XG.b.h.V.h > 7 1 n 2 7 w.> 7 4 , 6 m , N 2 > X = 7 t.a.h.c.s.r.t.L.",
"z.F.)._.rX,XG.F.,XCXSX1XfXDXDXAXAXDXDXjXyXyXqXrXn H 6X<X:X{.| yXT.b.M O l y.h.2 1 5 g.& = - 5 - > 6 m : % X $ 2 9 * 1 3 1 = 1 t.",
"N I.oXP.U.,X1X>XVXGXCX2X2XDXGXGXJXJXJX3XQ.fXdXqXH %XC.OX>X+.O.gXZ.+XC ; M r.w.7 1 1 * 7 < ; Y V : 6 8 l - 3 $ O % = 1 w.r.* 7 7 ",
"V.Z.G.! m h.}.S.<XoX9XSXAXdXSXSXPXlXlXQ.3XyX1XuXH V |.OXXX}.2X>XN.Z.H O = 2 e.w.7 N : 4 : < 6 < 5 6 8 g.h.e.= $ : $ 1 3 9 t.b.t.",
"L.j.8 B.N.~ ! K.sX9X6XCXGXNXSXmXDXkXkXW.yXdX1X<XXX~ OX8X&XpX2XrXy.Z.2 o O = t.w.8 g.N N 6 6 6 6 n 8 Y 8 r.t.t.1 M : * & * s.b.c.",
"1 5 ~ V ! { C.H.gXSXMXCXNXaXCXAXFXDXFXkX`.1X,XuX..XX.XvXcXVX1XZXA.Z.C $ J g 2 w.y.V 7 w.g.x.m : , z : > 1 1 r.2 n h e.e.e.v.c.c.",
"M z.R.S.z.B.g.V A.-XCXMXNXMXNXSXKXHXFXJX`.tX9X+X: 5XCXaXGXFXVXMXC.Z.~ h P G % 1 N V N N 6 g.Y N n < - > l V r.2 ; > t.s.t.s.c.t.",
"n Z.T.V.l.z.~.R.}.7XMX6XuXSXIXIXHXlXpXDXW.`.FXiXg.,XuXOX<X1XgXgXI.oXm ~ }.l > 1 h n , , 6 g.g.x.h.6 5 , : : 5 l.y.V N w.e.a.c.h.",
"l.V.+Xk.k.R.m.H.6XHXZX6XF.6XNX7XZXPX1XtX1XU.pXgXgX<XI.I.oXI.>XdXiXV.! , { B M 2 = M 7 , 6 5 * e.8 8 ! 7 2 3 2 r.H.l.V r.M.c.t.e.",
"z.M N j.k.z.l j.>XSXZX}.F.Y.<X}.;.NX2XdXdXW.rXgXsXiXOX+XiXiXgXgX<XJ.! l l $ 2 2 1 1 p.: 6 5 - > 6 4 V 8 7 1 2 1 w.e.n c.d.t.e.n.",
"w.N ! k.m.m.z.b.S.C.oXU.7X[.Z. .=.oX1XDXVX^.pXkXC.Z.C.+XgXlXlXFXZ.k.O.A ; > X 1 1 * i.5 & 6 5 m < % : - 1 n 7 9 * 1 = w.n.c.f.v.",
"m.m.T.T.^.P.R.uX}.Z.L.1XNXP %XiX[.V.>XrXeXU.iXVX[.C.+XiXgXgXFXIX+XV.C.C.A.l $ > 7 7 8 6 h 6 C N.V : 6 z 4 - n H H h 2 h.n.e.s.!.",
"/.`.P.`.m.P.R.B.C k.K.fX<XC L |.6X-XH j.>X>XMX0X}. .XX*.F.fXZXIXJ.A.{ C V.M = = h.m b b : l C.F.x.e.p.5 7 7 = y.P h 7 a.a.e.n.!.",
"M.R.m.P.'.`.`.x.k.V.Y.HXIXiXZ.+X6XSX.XqXfXaXCX} h OX.X-X7XAXHXIXb.r., $ n r.n & e.8 ~ ; h V XXN.g.! ! 8 4 e.2 2 u.M t.c.w.a.a.n.",
"/.^.m.R.P.).R.k.I.PXUXUXIX<XZ.+XAXIXDXLXJXCX8XX.h C.5X6XSXKXIXGXx.j.V v r.7 4 7 e.i.w.= ; M F.G h z 8 i.r.4 V M r.w.w.l.c.n.e.c.",
"t._.Y.R.k.k.N j.Z.ZXCX9XoXU.F.V.MXVXpXHXUXLX|.D.H G <X9XSXBXSXgXl.z.A.$ C n 9 & * s.s.0 * % ! / y @.! r.8 8 e.v.t.e.f.t.!.d.e.J.",
"t._.^.Y.A.y.b.R.z.J.A.C.OXGXZXY.gXY./.tXUXKX7XD.B N.6X5XiXZXHXiXM j.V.n V M 2 4 p.p.p.p.p.< N Q X.z { n 4 w.v.f.d.f.!.!.f.t.a.c.",
"n.xX'.W.V.K.H.H.T.I.N.Z.sXLXuXm.pX>XrXtXZXGXFX:Xm { OXZXFXZXgXiX7 z.l.w.6 4 e.e.p.0 * 0 6 @.+.D.X.~ B n 6 e.s.s.e.f.!.!.s.e.d.e.",
"'.xXxX'.tX_.^.M.l.k.U.oX>XY.rXH.).,XZXSXpXLXFX:Xj V oXMXZXHXZXiXr.Y.V.V b.5 e.v.0 0 & < + @ | {.*.| b h C M d.f.f.f.f.!.d.s.d.s.",
"h.v./.hX'.R.l.n.P.b.m.rXY.T.~.m.A.=XMXHXHXZXKX1X~ :XaXZXDXBX<XOXw.H.y.O C 3 8 0 & 0 < # o o S 5.[...S N m p.v.!.!.!.(.!.e.s.!.a.",
"2 2 t.H.w.r.r.r.x.z.m.P.T.H.b.Y.+XvXtXBXSXpXGX>X7XBXdXHXKXZXhXeXw.w., $ 1 $ 1 3 4 6 # # . o i $.D H G , 8 p.a.!.(.(.(.~.e.e.a.a.",
"l.y.7 2 j.t.V.z.V./.L.z.z.z.I.oXZ.+XrXyXtXgXsX:XC.VX7XiXSXSX).J.7 V.l.N N 5 4 m ~ < @ .     + F H D C , 6 s.f.(.(.(.(.(.!.M.a.i.",
"n Y.ZX<XV.r.M M m.Y.~.^.h.eXhXiX%X@XJ.`.lXZXZX1Xl 1XiX7XiXCXJ.l.t.MXA.V , 6 G.%XX.# o q . . w ( s t j 2 ! !.f.(.].(.d.!.(.M.s.s."
};
