/* XPM */
static char *_fd321653c7748578c24e3ab49353015[] = {
/* columns rows colors chars-per-pixel */
"64 64 256 2 ",
"   c #6B5C3A",
".  c #73613C",
"X  c #5F5E4C",
"o  c #6D5E4A",
"O  c #745C40",
"+  c #6C654C",
"@  c #6D684B",
"#  c #7B6444",
"$  c #79674A",
"%  c #7D6A4B",
"&  c #756849",
"*  c #7E714F",
"=  c #6E6554",
"-  c #6D6859",
";  c #756B54",
":  c #7D6D53",
">  c #736B5B",
",  c #7A6D5C",
"<  c #746353",
"1  c #7A725E",
"2  c #7B7054",
"3  c #7B6E63",
"4  c #756C66",
"5  c #7C7363",
"6  c #7B7468",
"7  c #696D74",
"8  c #7D7876",
"9  c #846A45",
"0  c #816B4C",
"q  c #886B46",
"w  c #87724B",
"e  c #846E54",
"r  c #866D56",
"t  c #857455",
"y  c #8D7655",
"u  c #8B7956",
"i  c #84745C",
"p  c #8B755C",
"a  c #8D7A5B",
"s  c #867B5F",
"d  c #927D5D",
"f  c #937A59",
"g  c #837663",
"h  c #847C64",
"j  c #8C7B64",
"k  c #81776B",
"l  c #847B6C",
"z  c #8C7C6B",
"x  c #897662",
"c  c #937D64",
"v  c #917E6A",
"b  c #987D69",
"n  c #857C72",
"m  c #8A7E72",
"M  c #837C7A",
"N  c #957F71",
"B  c #7C867F",
"V  c #988359",
"C  c #A68857",
"Z  c #87816C",
"A  c #8B826C",
"S  c #8E8467",
"D  c #948264",
"F  c #9B8465",
"G  c #94836C",
"H  c #9A856C",
"J  c #968B6D",
"K  c #9C8A6D",
"L  c #978867",
"P  c #8C8374",
"I  c #8E8A75",
"U  c #8C837A",
"Y  c #8D8A7B",
"T  c #86827A",
"R  c #958473",
"E  c #9A8673",
"W  c #958A75",
"Q  c #9B8B73",
"!  c #93867B",
"~  c #9B8679",
"^  c #948B7C",
"/  c #9C8C7B",
"(  c #9F9177",
")  c #96917D",
"_  c #9C937C",
"`  c #8F917B",
"'  c #A38B64",
"]  c #A28E6D",
"[  c #A98B65",
"{  c #AB946D",
"}  c #AC9769",
"|  c #B3966E",
" . c #B4986C",
".. c #A28E74",
"X. c #A18E7A",
"o. c #A49275",
"O. c #AB9474",
"+. c #AD9C75",
"@. c #A3937B",
"#. c #AB967A",
"$. c #A5997C",
"%. c #AC9B7C",
"&. c #A79877",
"*. c #B29B75",
"=. c #B39E7A",
"-. c #B49774",
";. c #B3A17E",
":. c #BAA177",
">. c #757C8C",
",. c #827F83",
"<. c #7D838B",
"1. c #7A8187",
"2. c #6D859A",
"3. c #798994",
"4. c #798898",
"5. c #7D949C",
"6. c #7B969C",
"7. c #5C8BBC",
"8. c #5588B8",
"9. c #4F89B7",
"0. c #6789AA",
"q. c #738DA4",
"w. c #778CA9",
"e. c #6D92A6",
"r. c #6D91AB",
"t. c #7592A6",
"y. c #7C95A4",
"u. c #7D99A5",
"i. c #7494AC",
"p. c #7B95AB",
"a. c #7699AD",
"s. c #7D99AC",
"d. c #648CB5",
"f. c #6C8DB3",
"g. c #628DBE",
"h. c #6A8EBA",
"j. c #6387B7",
"k. c #6491B3",
"l. c #6D93B4",
"z. c #6691BC",
"x. c #6C93BB",
"c. c #6F99B2",
"v. c #7395B3",
"b. c #7996B2",
"n. c #7598B2",
"m. c #7C99B3",
"M. c #7394B9",
"N. c #7599BB",
"B. c #7A9ABC",
"V. c #7993BB",
"C. c #5D8DC1",
"Z. c #5688C0",
"A. c #5D91C3",
"S. c #6893C1",
"D. c #7795C2",
"F. c #8A8D8B",
"G. c #888686",
"H. c #948C82",
"J. c #9C8D81",
"K. c #948B88",
"L. c #8C948D",
"P. c #8C9488",
"I. c #949383",
"U. c #9C9383",
"Y. c #9C9A85",
"T. c #94958C",
"R. c #9C948B",
"E. c #959A8D",
"W. c #9C9C8C",
"Q. c #969B87",
"!. c #878C96",
"~. c #849595",
"^. c #8B9694",
"/. c #8E9A94",
"(. c #84969D",
"). c #8B969B",
"_. c #85999D",
"`. c #8C9A9C",
"'. c #929692",
"]. c #949B95",
"[. c #9B9D93",
"{. c #939C9B",
"}. c #9A9E9B",
"|. c #989793",
" X c #A18F81",
".X c #A39482",
"XX c #A89783",
"oX c #A39B85",
"OX c #AB9C83",
"+X c #A2958A",
"@X c #A39D8B",
"#X c #AA9D8B",
"$X c #A29D92",
"%X c #A19F9A",
"&X c #AB9D92",
"*X c #9EA18D",
"=X c #9EA193",
"-X c #95A09C",
";X c #9DA19B",
":X c #93A193",
">X c #A5A185",
",X c #ABA285",
"<X c #A4A18C",
"1X c #ABA28C",
"2X c #AFA88E",
"3X c #B3A383",
"4X c #B2A58B",
"5X c #BAA68A",
"6X c #B5AA8D",
"7X c #BBAB8B",
"8X c #BCA883",
"9X c #A3A394",
"0X c #ABA493",
"qX c #ADA995",
"wX c #A3A39B",
"eX c #ABA59B",
"rX c #ABA99D",
"tX c #B2A693",
"yX c #B4AB93",
"uX c #BAAB92",
"iX c #B4AC9A",
"pX c #B5A899",
"aX c #BAB08C",
"sX c #8396A3",
"dX c #8A96A3",
"fX c #8599A3",
"gX c #8B9BA3",
"hX c #8296AB",
"jX c #839AAA",
"kX c #8A9CAA",
"lX c #8A94AC",
"zX c #939DA2",
"xX c #9B9EA2",
"cX c #929EAA",
"vX c #9B9FA8",
"bX c #839BB2",
"nX c #839BB8",
"mX c #8193B4",
"MX c #909DBE",
"NX c #A19FA0",
"BX c #8FA1A9",
"VX c #94A1A3",
"CX c #9BA2A3",
"ZX c #92A2AB",
"AX c #9CA4A9",
"SX c #97A4B5",
"DX c #A2A6A3",
"FX c #A9A5A1",
"GX c #A5AAA5",
"HX c #A9A9A3",
"JX c #A3A6AA",
"KX c #A1A9A9",
"LX c #A8A9AB",
"PX c #A5AFBB",
"IX c #B2ACA0",
"UX c #C1AA88",
/* pixels */
"7X1X{.`.fXgX(.(.(.6.y.u.p.s.zX{.{.`.-X[.{.|.[.].[.I.: $ r f b ] X...J / 6X2X<X9XE.{.-X_.{.:X].:Xi.p.p.u.fXfXfXsX-X9X$X$X,X%.u # ",
"4X1XzXdX`._.5.(.y.t.y.u.u.p.`.`.-XgXwX=X9XW.[.[.Q . # y f b ] E @.X./ &XyX0X@X'.E.L.].`.sXgX`.6.c.p.i.u.fXu.y.(.{.[.[.9XXXu # 0 ",
"4X[.fXfXfXkX(.(.(.fX_.gX_.`.-X-X{.}.].|.W.oX$XJ % ; E F H O...K H H @.qXqX$X].'.-X`.`.fX6.y.t.e.t.r.r.e.p.u.(.`.-X[.$XY.e : r u ",
"@XdXjXgX`._.(.fXfX`.].:X:X`.`./.zX}./.W.#X,X( $ t v ........F E E Q tXrX9X|.E.{.`.`.`.5.y.y.i.i.e.f.v.c.m.fX_.;X9X@X@Xi O r u b ",
"<X}.kX_.fX(.5.sXfXfX`.Q.:X`.gXfXgX-X].9X,X=.0 % c c H o.O.#...] J OXiXeX}.[.zX-X{._.`.fX_.y.t.r.k.l.m.v.kXVX].rX@X1XG # : p c c ",
"9X].fXfXsXdXu.s.s.s.fX(.~.u.fXfXzX[.wXoX3Xa $ x x G H K #.%.{ K @.uXiX[.].].-X}._.fXu.p.v.l.f.c.c.m.b.s.gX/.}.=X@X@.% p G Q E J ",
"W.|.sXy.fXgXfXm.N.c.M.a.m.s.kXfX).zX[.@X/ o g j / @.K G ..F ] o.4XiX0X[.{.`.fXfXsXjXbXn.l.V.n.s.y.bXa.jXVX:X;X=XI.a % H H Q Q R ",
"}.{.(.sXfXfXBXu.n.v.b.m.a.B.jXVXCXxX$X+Xs ; g E / / E G ..E #.&XiX<XW.}.{.kXb.M.b.p.s.b.b.p.sXfXfXjX5.fX-X-XwX@XW : t S W Q H R ",
"_.`.gXfXfXkXp.p.s.b.v.m.b.m.kXCXwX9X3X@.< g m H.! Q  XR D / 4XuX&X9XW.[.}.(.m.M.x.v.b.b.a.i.t._.`.).sXcX{.}.wXY.A x v j c K H  X",
"/.{.gX_.fXhXp.p.fXm.n.n.M.bXkX-X9X%XtXj , m U ,.G.E H.eXXXtXqX<XoX<XW.W.].'./.kXf.v.a.m.bXu.t.gX`.fXgX`.VX}.=XI.l g x Q K W  XoX",
"W.{.fXhXs.p.jXhXkXfXfXfXgXgXzXVX}.tXOX* k m U G.R./ o.uXpXeX9X$X1X2X,X<X$XW.*X`.p.p.a.jXBXfX(.gXkXdXdX_.{.xX-Xl 2 g j oXX.b $.5X",
"W.}.}.gXp.u.y.jX_.`.`.`._._.zX{.wX<XL : ~ ! U.eX@X#XqXrXwX}.-XE.*X<X,X1X>X0XW.R.{.`.dXjXfXgXBX_._._.cX`.zX}.T.> 2 h / Q d [ yXIX",
"1 A _ W.'.dXzX`.fXdX`.`.gX{.zX`.W.&Xg j $X0XeXIXrXFXCX{.zX_.(.{.{./.W.Y.A Z P ) $.W.].{.`.)._.sXkXgXVXCX{.-XT - h U.eXOXXXyXLXBX",
"* : i G W ) R.$X{.{.zX).`.gX].$X1X&.Q oX5X5XqXwXCXxXkXp.p.y.y.dXdX`.}.@Xh 2 2 g h W _ W.{.gXgXfXgX`.AX}.}.W.I I Q.wXFXIXeXCXjXsX",
"c s z E j z R ( Y.[.{.{./.[.@X;.;.+.tXtX=.XX$X{.zXcXp.b.i.p.p.hXjXzX{.eXW & i A j g x P T./.gXcXgXcXKX-X/.I.Y.wXJXZXAXzXgXjXs.m.",
"] v v R N N z p D / |.|.[.[.#.:.*.=.#X@X$X[./.(.hXp.p.b.t.p.y.lXAXJX}.9XW.g t R m l z 5 , P '.{.`.-XGXwX[.E./.`.gXhXjXkXjXu.m.s.",
"{ F R W W J.R R v p ~ oX@X#X[  . .*.oXeX].E.`._.i.t.p.i.w.t.t.cXJXCX}.%X9XP , z T M T Z 6 6 l F.'.].;XFX].dXu.(.`.dXkXjXfXu.N.a.",
"+.{ Q E J.~ ~ W / R j ( OXOX{ C :.5X@X}.{.`.`.sXw.p.i.i.s.t.i.fXZXkXgXwX9X^ n >.w.G.G.G.8 n k n Y '.].].gXw.b.5._.gXy.y.fXbXa.n.",
"+.+.K j N J.N N / ! R R Q o.%.{ :.OXW.{.).fX`.5.p.hXt.i.t.sXs.y.y.fXgX;XW.W.G.0.f.3.B G.1.U z j 1 G.'.].gXp.b.u.u.y.v.l.v.l.i.c.",
" .+.' b R R H.H.R R E N E ..%.OXOXY.[.).cXsXy.fXsXhXy.w.t.dXp.i.t.p.b.VX9X$XU.2.j.q.hX4.<.n z j T G.K.}./.dXhXbXjXsXv.M.x.V.p.a.",
" .} { V E X./ J./ N ! W R D o.#XY.=X{.).~.sXp.BX(.p.i.y.u.y.f.r.i.q.v.lX}.W.3X` 0.j.w.y.!.U z g G.<.5 ` W.[.(.dX).fXb.M.N.v.c.a.",
" .C -.{ K / ~ J.J.~ ~ ~ / Q H XX*X}.{.).(.(._.`.zXt.q.hX)._.p.v.v.v.v.p.dX[.<X@X1.2.4.3.w.>.M k M Y s S _ ,X[.dXVX_.v.v.B.nXn.m.",
"*.C ;.;.{ K / U.+X X/ ~ +X/ Q / W.}.{.gXgX).gX`.(.4.sX(.(.~.`.sXi.f.a.p.).].].=XW.1.(.b.j.f.4.k P v A j K 3X>X[.^._.i.l.B.s.BXjX",
"3X.XOX*.-.+./ lXlX!.).dXR.E XX@.F $X].{.jXkX{.(.dX).kXdXsX(.].;XsXa.v.p.{././.-X9XR.!.5.M.D.!.A / G G G H +.=.#X].(.n.v.m.b.gXfX",
">X[.$X%.3X*.OXlXV.mXnXD.K.X.XX#XF OX;XzXdX{.}.:X{.[.[.)./.-X<X*X].fXi.u.-X/.E.].[.;XT.).MXMXT.^ ! R Q R W Q %.XX[.kXs.p.s.jXsX_.",
"Q.{.[.@XoX1XyXE.1.zXzXMXNX~ X.Q _ #.0X].{.<XW.W.Q.9X=X[.E.[.=X*X[.^.`.`.:X].W.W.Q.-X9X[.`.}.[.$XH.T Y ! W H O.O.[.`.kXlXkXy.hX/.",
"W.[.T.W.9X9X=X=X}.zXvXMXDXX.Q E @.Q &X@X[.9X[.E.W.*X*X9XwXW.W.9XW.E.-X[.W.W.*X=X[.[.=X{.{.{.xXJXSXbXmX!.K.J o.| @.P.).dXp.q.kX;X",
">XK ^ R.E.=X-X{.CXwX@X}.}.$XU.Q Q R #.2X9X=X[.*X$X=X=X<XW.W.9X0XW.*X<X<XeX<XW.=X=X9X].}.zXxX}.}.CX}.vXG.G.H.R | V I.).lXp.jXzX:X",
"a ] %._ E.-X`.VXzXzX>X=.0X=XR.^ H.|.W 6XeXQ.=X=X[.*X<X<X@X<X<X9X9X9XrXW.S J Y.W.wX[.{.gXcXzXzXzX9X,XOXQ &XFXR.O.#.) ~.jXlXp.gX-X",
"a { +.oXL.(.sXgXkXzXW.9X%X;X$X#X4XeXeX0XwX[.[.*XQ.@X<X1X>X,X1X<X0X) h + = _ 9X[.;X}.{.{.dXdXcXzX}.wX<XOX;.,XXX@.oX[.{.dXdXzX-X;X",
"( ;.C _ ~.kXfXkXkXjXfXjXkXcX-XuX5X1XwXFX;X{.].Y.<X<X<X>X2X>X$.Z @   X 7 n qXtXI [.CX{.{.kXcXfXsXdX}.wX9X0X&X>X2X0X=X'.;XPXKXFX;X",
"#X:.C $.].ZXkXfXy.m.b.b.B.bXcX%XtX0X}.%X}.9XW.W.@X>X,X,X$.V 2 ; > 4 4 4 P uX=.c './.E.`.fX6.hXp.fXJXLXJX}.[.0X0X=X*XGXHXwX$X@XW.",
"3X:.:.>X[.gXkXb.z.7.g.S.z.m.SXKX}.zX}./.T.1X9X@X>X2X>XD w t G l l I U 8 ( UX+.V T.E./._.gXfXfXu.(.zXCXCXxX].].$XQ.[.9X@XoX1X@XQ ",
"aX:.=.>X=XkXv.Z.7.C.A.8.7.z.v.kXsXfXzX}.W.W.@X<XqX_ 0 # S oX^ A m P m R 5X;.+.I.].-X`.(.gX`.(.6.`.`.`./.-X{.'.].W.$XW.oX<X@Xc   ",
"7X8XoXoX).h.8.8.8.g.Z.A.7.g.M.jXgX`.}.9XeX$.>X9X) @ + W +XR.J.! U U m Q aXeX@X}.].{.fX_._.u.6._.`._.{.].].{.{.*X$X<XoX<XXXt . . ",
"4X3X@X^.q.7.8.9.d.r.7.C.A.7.d.jXgX-XzX].=X_ 0XW + - M K.XXY.+X/ ^ R x 3X4XW.].].{.`.`.sX6.fX6._.(.`.`./.E.[.W.W.<X1XoXXXu 9 t y ",
"3X3XY.gXw.d.8.8.l.p.7.A.h.7.x.zX;X-X` _ &XoX_ - 7 w.>.z +XR.J.! ! m #.:.4XW.}.`.`.VXgX(.(.gXfX_.gX_._.:XW.W.W.Y.oXoX@.d 9 u E E ",
"1X1X}.cXhXl.d.7.h.l.g.x.S.g.D.ZX].W.Q.<X1X$.; > 2.w.G.J.R.J.J.! ! oXaX5X1X*XE./.-X`.fXfX_.fX_.(.`._.~.{.E.=X<XY.<XOXH 9 p b @.E ",
"$X}.VXDX_.r.g.d.0.d.z.x.S.x.V.kX].[.[.9X4Xu o m G.,.H.J.H.R.H.G.@XpX4X4X9XW./.{./.`.VXgXsX(.(.(._._.~.`.{.W.Q.Y.<Xo.9 9 y c ~ X.",
"wXCXCX-XdXM.N.e.t.v.x.x.h.g.M.gXE.}.[.|.Q $ 4 n ~ H.H.K.H.T.mXzXwX0X0X9X$XE./.^.`.`.`._.(.5.5.~.~.`._.`.{.].W.&XXXy 9 f j ~ J R ",
"zXCXCX^./.fXi.r.l.B.N.e.k.h.v.dX].-X[.( 9 : U ! H.H.H.R.R.T.AXDX0X2X1X[.[.E.^.^._././.(.y.y.sX(.(.6.y.gXzX|.$X>XK q y R /  XG J ",
"gXBXvX'.U.I.p.B.N.N.l.f.z.z.v.`.-X{.;XQ . 1 n Y H.J.G.H.R.%XeXrXrX@XwX*X].].L.!.~.5.^.(.5.y.5.y.p.y.sXZXCX<X1XOXd 9 d .X@./ E v ",
"gX).gX'.$.K '.b.M.M.x.S.D.M.bXKXCX}.wXj + R ! n H.K.{.}.[.HXiXiXFX9X9X*X<XQ.P.)._.(.sXfXy.q.t.t.y.p.fXGXFX$X>X] 9 q F ~ .XXXX.H ",
"dX`.zX{.oXo.#.lXM.l.k.h.z.f.bXKXCX}.R.; 3 Y H.U K.wXPXKXGXiXiXHXFXrX9X>X+.&.oX/.`.fX`.fXy.5.t.t.t.t.`.GX$XY._ D w f H / .XXX@X#X",
"L.].].W.@XoX<XzXM.f.k.k.N.l.b.cXzX}.A = z ! R W.wXrXLXwX0X2XqXeXGXwXY.>X=.=.+.oXW.{.cXfXkXu.y.t.u.sXgX].L.U._ t a H  XXXOX0XyXyX",
"> P U.@X@X<X@X).bXl.l.V.n.b.m.b.zX9X1 g  X$.OXiXiXFXwX-X=X=X<X1XFXwX@X@.V d ] +.%.1XW.VXfXgXy.s.(._.gX~.E.$XW t a Q pX6X3X6XuXqX",
"= , z G W ( @X$X}.p.v.v.B.b.b.jXdXI.n %X5XUX7XiXqX;X-X{.fXgX].<XwX$XoXY.i t a u y F oXW.{.gXhXsXfXfX_._.`.[.I K OX7X6XqX0XeX%X}.",
"6 5 5 1 6 Z Z W Y.].'.fXp.p.u.hX).Q.W.1XtX1X<X9XwX`.~.`.gXfX-X9XW.*XY.OXQ J / W c 0 u G ) ].`.gXdXgXgXgX{.{.T.9XrXeX[.}.}.}.].).",
"R h M m H.P n 4 l ) W.].`.hXfX{.E.E./.E.[.gXs.hXhX(.`.{.:X/.E.=XW.@X..[ -.F Q X./ R j e e ^ [.{.(.).zXzX-X}.{.xX}.}.-XW.=X[.]./.",
"XXS m Y m ! H.P l 5 ^ Q.E./.E.T.Q.~.sXF.P.p.m.b.t.y.`.:X:XL.Q.Q.].9X#X[ | K Q 0XG v G j j p h U.].}.CXCXzX}.{.`.gX`.[.*X*X].{._.",
"OXQ z n n m n Y U 8 k I U.Q.Q.Q.^.~.P.A P.jXa.t.a.u.6./.]./.^._.{.CX}.#.| o.W / G z j v R G x i J.'.{.`.{.gXdX(.5.5.{.].jXu.sXp.",
"1Xo.H m m M n P U l k 4 Z <X@.oX].~.T K T.kXr.p.s.fXsXfXgX{.-XfXCXKX|.@X#.OXK z E G c N G z z j Z P.'.{.{.gXhX(.sXdX_.hXv.v.i.v.",
"4X;.H z W N n n m m , 3 3 D @.+.@XW.) Z ^.w.l.a.t._.6.~.5.(./.~.{.CXkX{.<X4X#.d G E W E v p c v G Z I.[.[.zXhXjX5.fXfXm.v.v.v.c.",
">X3X+.V R R R l m m k l k , ..=.#.@.U.Z /.p.l.l.e.6.fX5.5.(._.{.VXfXhXlX%X4X4X..D W Q N R j p N ~ R G &.$.@XfXdXfXfX^._.b.l.l.l.",
"W.4X=.{ a G A R R l m U m m , ..{ ' o.I [.cXy.l.n.m.p.t.u.y.`.-X).zXcXdX|.oX&XOXK F Q E R Q R j G H G H =.4X[.{.fXcX/.L.fXs.c.c.",
"|.oXoX=.f t z A z l n n N ! 3 g [ C &.^ [.CXVXb.v.c.e.e.p.u.`.`.`.{.xXT.h / @...O.F Q E / ~ E v H c b G ' =.$X'.].`./._.fXjXb.l.",
"<X_ $.] O.V y x j N ! P A ! ! k H | +.W.xXJXkXl.l.l.l.N.a.m.jXgXfXgX%X|.U.+XoXF ] ] y D @.X. XX.XX..b c K #.1X#XoXE._._.gXgXs.u.",
"oXoX_ ( OX+.' w H  XQ / H.! ~ m S =.4X0X{.VXbXl.l.l.v.v.m.s.y.u.(.`.'.I.NXW.( #X<XOX[ F _  XX.c b c y c ~ ~ @X<XoXW.zX(.hXy.t.v.",
"oX@X@XW.$X@X=.' ' O.@.Q J.^ ^ ! Y $.1X<X[.hXp.l.l.x.l.c.s.jXfXsXkXzX'.W.}.K.I T.9XoX} o.K G ..Q c b r r XX X.X@X0X$X9XzXp.s.t.m.",
") @X$X|.W.$X9X3X=.-.O.Q R R ~ ^ J._ 1X1X}.p.p.e.l.l.l.v.p.jX`./.{./.Y E.`.).gX`.`.Q._ >XOXXX.Xb H E p c #X@X/ %XqX9X9X}.jXp.`./.",
"|.$XW.Q.'.[.|.&X4X3X-.' v W N ~ XXU..X1XgXv.m.p.l.M.N.m.kXzX{.}.].T.I.[./.;XVX`.fXgXgXBX`.wXeX$.K H H XX&X&XU.@XqX0XeXrX{.fXu.fX",
"I.Q.Q.|.T.{.{.E.[.W.&XOX=.%.o.H ~ +X/ 1X-Xs.s.p.a.p.v.gX}.{.{.].[.@X#XOXQ W E.gXgXjXu.fXjXBXzX{.%X$X@.X.OX&X$X.XqX1X0X@X=X{.bXbX",
"Q Y.W.]./.zX`.`.gX).{.{.9X2X4X%.o._ +XoXwXzXAXkXfXgXgXzX{.[.-XwX@XoXF t % H <X]._.fXu.a.a.s.jXbXkXAXFX1X1XXX<X@XqX;X[.[.-X`.u.s.",
"Q @XT./.(.).hXhXjXhXt.jXgX}.9XoX>XXXXX@X;XCXCX`.{.VX}.{.{.}.@XI i i $ * x OX6X$./.u.m.b.s.m.a.bXbXcXAXNXW.6X#X<X9X].`.]./.`.kXjX"
};
