/* XPM */
static char *fbd8dd7eed894f42c653bec315cba733[] = {
/* columns rows colors chars-per-pixel */
"64 64 157 2 ",
"   c #1E1915",
".  c #221713",
"X  c #221914",
"o  c #251C1A",
"O  c #28211C",
"+  c #2C2422",
"@  c #2D2924",
"#  c #332523",
"$  c #382720",
"%  c #332A25",
"&  c #3C2A26",
"*  c #362B29",
"=  c #3C2C29",
"-  c #3E312C",
";  c #442D25",
":  c #43332D",
">  c #4B352E",
",  c #4B392F",
"<  c #51362F",
"1  c #543B2F",
"2  c #443431",
"3  c #473933",
"4  c #4C3B35",
"5  c #4D3D39",
"6  c #543D35",
"7  c #5B3E35",
"8  c #553E39",
"9  c #5B3F39",
"0  c #4F423A",
"q  c #564134",
"w  c #5B4236",
"e  c #55423C",
"r  c #5C443C",
"t  c #55483F",
"y  c #5E493E",
"u  c #614536",
"i  c #6B4634",
"p  c #634837",
"a  c #63453B",
"s  c #6B463B",
"d  c #644A3D",
"f  c #6B4A3D",
"g  c #714836",
"h  c #72473E",
"j  c #734C3D",
"k  c #7A4D3D",
"l  c #6E513D",
"z  c #74513E",
"x  c #7A523E",
"c  c #7D593F",
"v  c #554541",
"b  c #5C4641",
"n  c #564842",
"m  c #5D4B44",
"M  c #554A49",
"N  c #5D4D49",
"B  c #5E5047",
"V  c #5E514A",
"C  c #624742",
"Z  c #684740",
"A  c #634C44",
"S  c #6B4D43",
"D  c #634E49",
"F  c #694E49",
"G  c #734E42",
"H  c #7B4E42",
"J  c #645145",
"K  c #6C5245",
"L  c #6D5847",
"P  c #64524C",
"I  c #6B544C",
"U  c #66584F",
"Y  c #6D594E",
"T  c #745344",
"R  c #7B5344",
"E  c #765945",
"W  c #7B5945",
"Q  c #72554B",
"!  c #7B5549",
"~  c #74594C",
"^  c #7C5B4B",
"/  c #655551",
"(  c #6B5651",
")  c #665952",
"_  c #6C5A54",
"`  c #675C5A",
"'  c #6D5D59",
"]  c #715651",
"[  c #725C54",
"{  c #7A5C53",
"}  c #725E59",
"|  c #785F5A",
" . c #7C614B",
".. c #6C6057",
"X. c #6E615C",
"o. c #746155",
"O. c #7A6254",
"+. c #74625B",
"@. c #7A635C",
"#. c #76685F",
"$. c #7E6A5F",
"%. c #6E6361",
"&. c #736461",
"*. c #7C6662",
"=. c #756961",
"-. c #7B6962",
";. c #7D6B69",
":. c #814C3B",
">. c #83533F",
",. c #89503F",
"<. c #834E44",
"1. c #835444",
"2. c #8A5443",
"3. c #825B46",
"4. c #895F46",
"5. c #835549",
"6. c #8B5449",
"7. c #835D4B",
"8. c #8A5C4B",
"9. c #945744",
"0. c #9A5945",
"q. c #935B4D",
"w. c #805F50",
"e. c #8E5951",
"r. c #806047",
"t. c #8C6545",
"y. c #8F6945",
"u. c #84624D",
"i. c #8A624C",
"p. c #84694E",
"a. c #97744E",
"s. c #836351",
"d. c #8B6452",
"f. c #876853",
"g. c #8C6A54",
"h. c #846B5F",
"j. c #8E6B5A",
"k. c #916751",
"l. c #9B6352",
"z. c #9A6A53",
"x. c #937054",
"c. c #9C7653",
"v. c #9C7C56",
"b. c #93725D",
"n. c #9A745A",
"m. c #9B7F5A",
"M. c #806760",
"N. c #826A64",
"B. c #816E68",
"V. c #847069",
"C. c #967762",
"Z. c #997A68",
"A. c #A37E61",
"S. c #A7815C",
"D. c #AD835D",
"F. c #B88B62",
"G. c #B28F69",
/* pixels */
"( ) _ _ ) Y [ F S Y K K j T ! ! L F I A S a Z Z 5.5.W r.^ ^ O.( d ~ o.[ _ _ O.{ [ +.h.B.} @.' _ } *.@.' X.-.@.;.V.N.} +.} ' _ X.",
"/ _ | } ' ' [ J S F K G R 6.6.Q 8.! K J Y S f s k k R R ! T ^ L r S Y _ ( ( @.I P &.+.*.N.M.F ( } -.@.' @.-.N.&.=.@.+.' ) [ X.} ",
"( _ } Y Y o.I J K P S Q ! >.k G ! H h S ~ D Z Z j E H T G T ^ T w d [ _ U ( I _ P _ @.@.-.*.' P @.*.} -.@.O.{ P X.+.+._ ) ' ' } ",
"( ) +.[ U Y U A U I Q ! H G S S S T H S S Z A Z d s K h T E E L y K L ( _ ( ( } ( I ] } @.@.@.{ [ / } -.} @.{ D [ -.=.+.) X.X.' ",
"X.I ! ] ] Q ) ( K A S G j f K A S G T S Z S A Z S d d j H R ~ L m K ] I _ _ _ } I ] [ { ~ ] } [ } _ @.} _ [ } ~ @.@.=.%.@...} X.",
"_ f G K ] K S A T d j k f S T f f Q T G S f A S Z T G <.H 1.T D r S I ] ] _ _ ' ( Q ] ( _ ] F ( ) _ +.[ ..I } @._ &.=.+.=.} ' ;.",
"[ Q G K Q Q K S ! H 5.1.z T H f G T T H G l ! ^ Q T H 6.2.H d A w S ~ P D ' ' U Y I I } } I Q Q ] F [ Y ) P _ } _ [ @.+.} / X.N.",
"O.] K A I Q G Z S R 5.R <.<.1.<.j H 5.R H ! R ! 1.k 7.q.<.H A t q K ] Q I ( ( [ _ I m _ } ) ( P { +._ ) D P [ ) _ _ / P _ U U @.",
"{ Q F K Q Z a a S H W x H H 5.>.1.6.q.4.6.6.k k R 5.e.l.6.R S t q S Y _ ( ] ( ( F ] D ' [ ( P ] _ } @.' ( _ ' X..._ U P / P D P ",
"Y K K S J a Z Z f R 3.x j 5.8.6.8.5.1.2.8.8.k <.k <.1.2.0.2.T d 5 F ( ( I ] [ ( ( [ ] ( } ( / [ [ / ( ] _ ( } _ P I P m D F n P ",
"] Q L K f l f a G R i.z c <.>.5.z.u.R <.,.9.k k j j R 1.6.9.,.p 9 A P } { ] ' ( ( ) [ ] ( ( Y ] ' A D _ ' ' ' ( D D D J P N n m ",
"F L Q T T s i S H W ! E 3.k R <.R 5.H j k :.g z l z G H T <.2.a r I U [ { ( ( F F Q L [ [ ( I [ F D S P ) ( F N m P m P m m m m ",
"K I I Z s p a f T W f.8.8.1.1.2.H H R R k j G H W l f K l j >.a r / ( ] [ _ { ( J A D } ( _ ' ] _ _ _ B N N N A N V / F D P / D ",
"T ] _ J A b r f H H 7.d.8.5.6.3.s.k k x j K l c z s s d s ,.R 9 r P ' ] [ ( @.[ P F I } } [ _ [ ' _ ( / / n m N P P P U ( ) V V ",
"R Q [ D b b r s H j g G 5.>.W W 7.W k k R T z k s f j y j 2.j 6 5 m ' ( ( P Y ] P P ( ! { ] F ) ' ( ( / / V F J P P P F I _ _ / ",
"A F F U S n 8 a i j j s g H W T T H k x x k j j z R l s A H g 7 6 b I I [ N I I I / ( ( ] I m F F U ' / ) / ( Q N / I ' ) _ @./ ",
"S b m P J b y p d i T j l R 3.T H W W 8.W G j G R <.s S S G j w 6 a K ] ( P F D A ( ( Q Z D P K Q F V D P ' ( U N D J b N P ( _ ",
"S A a A m a r w Z a ! H G S T T H z 3.i.W f S K K S p d J l f w r 9 C I ( I F D F I F Q K D ( A S F U D ( _ D D D F J e e ( U ' ",
"A d w r w r r b a S W k f s s T G R z W j S l C S A a A A ~ f 6 u w A I ( D F P I U ( ( ( D D [ ( K D P D P F ( ( / F v D { ( _ ",
"p m r r 7 7 7 f f s g s f j j g G H j G f S K Z P K d A S ^ l 7 d d K K ] U D C r P } ] _ D D K m A I P I F N U ( ) P ( ( ` P / ",
"~ d d S a u s h G G h u i s s s j s s h f Z A J S f s G G T H 7 u p T Q ] [ ] U ( _ [ J P I m m C F _ [ { F m ] Q F ) ( ) / m / ",
"a a a S l d a a s i u u a d i i f K d l S A J s s H H T G k j u u f K A F ( [ ] ( ) ' J / F y D F N P F ~ ( D [ ] I / _ ( / ( ( ",
"a A a K G f a r u 7 7 a f 9 u w a S A A J J K a i G k T T j h q u d K F I I Y U / ( P D D m A m m m ( Y J I D / D ( [ ] P D [ } ",
"m A C Z a w 9 8 r 9 r a 7 > ; 1 r f d J y K F a r a i k j g S q 7 y J P F A F ' ( / F S y D U D F D ( } Y A D m F ( } [ P ( ' _ ",
"m b C d r w r 7 r a y q & . . $ 6 Z A e p A J J J A d z T f d 6 w d Y O.I K I ' / P P Y Q P ] F D D P _ U V m D / ' _ I P ) ' / ",
"r N b b y t d r a D C , X   X o 0 K S w a d d D ( Z d G G l w 6 w L ~ ] [ P A ( ' o.F P U I _ P b b A I P N D D P ( I K F D ) / ",
"d Z S d Z r y m A C C : o o o O : S K a 1 d r Z r a p S f f a 1 w K { U P m I ' ' [ ( ( _ _ ( P U A D ) P J I D F F I P D P F ( ",
"a a a d D b b I D d a 6 @ @ @ @ - D d A r A d A r r p L a A r 0 d U U } ( I ' } ' D ( ' I ] ] I D C F J P D J J ( U D N m m D D ",
"C b J D _ L A A y w f r $ @ % - m F y J J I Q K G d P I A r y w K _ I [ @.] F U ( _ ' ( I } @.} I D D K J m D ( / +.P / U r A P ",
"A D I K C P A r a u A J w e B Q o.L d P F J S L K K ( I P A y w L Y I ( +.} C D P } | ] [ M.@._ [ ( I +.J m D D D D D D P D I F ",
"T y J J y S A a u a Q o.O.O.O.7.T A J P K d a d S K K L K ~ T w d J _ } @.=._ D U +.*.} } @.@.+._ ( [ _ D D D m D A r b m D ( I ",
"K A F F Q A A A d S E ~  .O.{  .~ Q Y I L S f z W ! S I K ^ K q w S _ @.@.[ ' _ ' @.-.&.+.} ( U _ _ ( U P ( N n v n I A b N P / ",
"T S A Q I J J m d S K L ~ s.] ! O. .~ ~ { ~ K j ^ ^ ~ ~ S T S q p S _ +.) I I D P o.( } +.] b m ( / D P U D m N D n m r m m D P ",
"3.G d P ( K ( K A d S Q ~ E T Q  . .~ ~ { ] Q G W z A I K A a 6 w l I } _ } ) N D ( I ' [ I n / _ I U U F D m D A m C A t n U P ",
"W f a K Y { ~ S Q d d G E E T T T  .E Q K F I Q j j d J P K f 1 d J J I _ [ I m P U / ) ) P m P _ _ ( m N m F P C A A D I K ( ( ",
"K Z S d K J P d s a a f j R ! T W ~ W l S ( K f f p J L L L z r d d U I _ _ D m m ( N D P C U _ _ V P P m M P V P P D y s.p.( S ",
"K I S D F F d s f l i i s R T G Q Q R ! ! ! F ! 7.K d J A T z w l A ( U P U I P N P D D D A ( ( / N / B m m N D N D J y j.b.K z.",
"S Q F F ( S s f f d f f f 5.! x T W W ^ { 7.E G T S S K F I L w a K I [ / U / ( U / / N N m D P P ) m U P N A J m C m d s.p.x.D.",
"T Q I L A S a a s f f S G z z H S K ^ ^ j.s.W ! T S J ~ I I P e a A F ) ( _ ( ( P N m N m m m P D P P D D B m J r n A Q ^ A.S.F.",
"P ] I S f S A A s S G S { j R j G l Q S T R 7.g.i.L J E L I S r d K L P ( ) ( P F D n m F U D D N C I n P J m m F F f K b.G.c.D.",
"D Q I S S D A d d f T R T H H W R T f f f ! 8.n.u.E K T  .N.Y r d l S L P U F t y D P b m m v n N m D b ( P n t P m a d b.c.a.m.",
"P F A J F J d d f G T ! W G E 3.! T ! T W 5.8.f.g.^ ^ T ~ Z.{ q d L J J ( ( I m r K A b b D t m n D D r r b m a e F d Z c y.c.v.",
"P A d Z A d f l E z ^ ^ ^ ! W W E L T c 7.7.T W 3.s.f.~ ~ C.7.r a J d A U Y K b A P A C r b b r m m t b b A m v n A f f i.y.c.t.",
"D J l a d A a G T T G T ^ 3.R W K ~ ~ L ~ ! T T T E  .8. .g.^ w w S A B m F n r P D m P m N D C P P t A d b r r C C r G 4.c 7.3.",
"U ( Z S S K d G T G L Q ~ W W ^ L L ^ E z l z p f L T R j R T C d I P D A F r r r t N I D D _ A P / m Z F m I C r K A l i l G W ",
"I D P A Z S l G z f E Q L d.u.^ T L W R x 5.d.r.f T T R ! T f m d A U J C 8 e 8 7 a C I C P ) F m P b D C D A D A m A G x 3.W E ",
"( / F C Z T ! H K a f L Q ^ d.u.W ! ^ ^ 7.8.k.w.G S T R ! z j q y A ( r 6 b n S b r r b C Y P U ' ` m m e F I D Z a D d R 3.f A ",
") ' ( F K S K T G G f S ~ 7.7.7.W R H z { i.8.7.E l T j j j l w w A P y D I ] I ( I F D D ( ( ( X.` F F P P F ) A D m Z x x K J ",
"J D N A a d A l S H T ~ ~ ^ E W W T G d T 5.3.8.l l W S d j f w r A Y U m ) _ ( _ _ _ [ F _ o.] D ) { [ _ _ o._ I A r C K F U A ",
"D / U I A S f S f h ! Q ^ T T O.T j H j L T W 3.G S j K A J D 0 w F I K Y ] P _ P B ' [ J _ _ ' Y _ { Q ( [ [ m F r r D C C D P ",
") U _ F / Y A z G f G T 7.^ ^ 8.G G G j f W u.u.T d j f S h.+.e w L L ( [ } / } I n ( _ ' _ I ( o.o.) _ ) _ I J ( r b m D D ) _ ",
"I X._ ) ( [ K d J K G j G E T K Z G d G z ^ r.W h G K R j ! ] t w K ( ( _ _ ( ( m V / } +.' _ @._ U P I ..#.Y F ] y A P / o.@.=.",
"_ ' _ _ _ _ ) S F A A l f G f S y y a d W W S S S L ! T H R ! r q S I X.U D K K Y ( F o.V.@._ _ O.I A D ..=.( P U A D K _ } o.&.",
"_ ( ) ) o.U _ I P F S S S G f d r b b a l ! E j G Q T j k 5.^ r 9 a F I ) D P ( Y _ I [ I ( I t I ] A U +.( P P ( P A I _ U [ &.",
"_ _ ( ' [ _ ) ] ] ] L S G S f d r b r r a s l E l l a j x 1.! 6 6 r y J ( D D m D D _ O._ P [ _ P ' _ _ X./ ) ' ( ) J ( [ ' ' [ ",
"[ [ K F U ( _ ) _ ..] Q A i a a e q r 7 u l s S s A A s R 1.G 5 , w y N / D V U m m ) -.' [ o.) U _ [ I P ' +.+.Y +.) J D ( ` _ ",
"' P ) ' U ( / I ~ } ( Q K S a r 5 e e 8 r s s s d m A Z ^ ! C 8 r 9 r b F V / ( D U +.X.@._ _ U U I _ I A U ' ..( P ) ) I ( U ' ",
"_ ) ' } X.( ' ( Q I K S G T A m v 8 r 9 a Z h g a r d Z S P P t 8 8 8 r e / _ P J ` +.[ @.@._ _ [ ) _ X.m D U P V N P / ( ) P b ",
") _ @.&.' _ ) ( K T T H T f y t 6 8 7 9 h k g i j j a y 3 3 3 M n n e , v / ) U D U ( ' } } ..o.U U ' ) / B ) V N P V P P / D b ",
"[ _ [ ] ) / +.Y I ] T G S A r e 3 6 7 s h >.k a u.r.1 * = 2 4 v M M v D M P N D D V / _ X.' _ P D o.X.` U J D N N / B V V V m d ",
"U ( ' K F ) @.( ( I T j a m m n m 5 5 9 s a q 8 e 6 # # 3 5 6 v v m D P N M P ) } _ P ( @.X.' ( U +.&.` v / _ P M V V U D b P m ",
"' ) / F S ' X.X.} ] f f f C v v 5 4 2 > > 2 3 v : @ o - 5 5 4 q v m V / D P ` ' &./ / I _ _ U _ m N ' m t V / U / V / / / V n p ",
"' _ / F K ' ' X.@.) F f S Z r 8 8 7 < = = * + - * # # > r e 8 v n m / ) P P ) X.' N V V X.&._ / U N D V B D P ` / V ) U o.P m A ",
"/ D ) ' _ ( V ' +.) F S f S Z S f f Z 7 3 3 % O @ * * 4 v r e r b P U / m m C ( [ _ / D ` X._ ) P V P V V N m D / ) / P o._ I f "
};
