/* XPM */
static char *d309e04e7b884473d1deddffb485d973[] = {
/* columns rows colors chars-per-pixel */
"32 32 128 2 ",
"   c #010204",
".  c #090206",
"X  c #030906",
"o  c #02030B",
"O  c #090209",
"+  c #03090C",
"@  c #090A0D",
"#  c #010413",
"$  c #030A12",
"%  c #0A0C13",
"&  c #02051B",
"*  c #030A1C",
"=  c #0C0E1B",
"-  c #100F17",
";  c #0C1013",
":  c #071019",
">  c #0D121B",
",  c #181A17",
"<  c #14151D",
"1  c #101A19",
"2  c #030720",
"3  c #040C23",
"4  c #0B0E22",
"5  c #0C1224",
"6  c #06172D",
"7  c #0C132B",
"8  c #09182D",
"9  c #121622",
"0  c #151B23",
"q  c #1B1B23",
"w  c #121C2A",
"e  c #101633",
"r  c #121B35",
"t  c #1C1C34",
"y  c #161C3E",
"u  c #152026",
"i  c #1F2120",
"p  c #13242C",
"a  c #1C212B",
"s  c #1D2333",
"d  c #252726",
"f  c #252A26",
"g  c #27282C",
"h  c #242B35",
"j  c #2C2D31",
"k  c #252B3D",
"l  c #292D39",
"z  c #2B3036",
"x  c #273039",
"c  c #2C3139",
"v  c #333736",
"b  c #33363D",
"n  c #37383D",
"m  c #3B3E3D",
"M  c #1C2D47",
"N  c #2A2D40",
"B  c #2A2D4E",
"V  c #2F3242",
"C  c #2C3B40",
"Z  c #263548",
"A  c #29354F",
"S  c #363D4D",
"D  c #3B3E4F",
"F  c #373D57",
"G  c #32404D",
"H  c #3B424C",
"J  c #3A4153",
"K  c #32435B",
"L  c #424C56",
"P  c #4A4B50",
"I  c #41475B",
"U  c #434A5C",
"Y  c #494B58",
"T  c #49535F",
"R  c #4D5565",
"E  c #4A5863",
"W  c #41526A",
"Q  c #535B66",
"!  c #51576D",
"~  c #5B5D69",
"^  c #4B5070",
"/  c #5B6366",
"(  c #59616E",
")  c #5D6475",
"_  c #56617D",
"`  c #5A6279",
"'  c #636574",
"]  c #626975",
"[  c #616E7E",
"{  c #565C80",
"}  c #5F6885",
"|  c #696F85",
" . c #6C7288",
".. c #767E8B",
"X. c #797D88",
"o. c #697F97",
"O. c #717990",
"+. c #797E92",
"@. c #7479A1",
"#. c #7684A1",
"$. c #798AA4",
"%. c #828593",
"&. c #82889E",
"*. c #889093",
"=. c #8B8DA2",
"-. c #8185AA",
";. c #8D94AE",
":. c #969AA3",
">. c #8388B0",
",. c #8F9BB3",
"<. c #869DBD",
"1. c #929BB8",
"2. c #94A0AC",
"3. c #A7A8AC",
"4. c #A0A2B1",
"5. c #AEAFB1",
"6. c #9B9FC4",
"7. c #97A6C5",
"8. c #8BAAD6",
"9. c #A5B0C4",
"0. c #B0B6C4",
"q. c #9CB8E0",
"w. c #ADC0DE",
"e. c #BDD5F7",
"r. c #BCD6FB",
"t. c #C4C8D3",
"y. c #CAD1E4",
"u. c #D3E8FF",
/* pixels */
"o o o     ; @ o = & & 4 t o     X     u $ < o   .         + w G ",
"%   o     +   o o & 5 4 # 9 X     / c H $ $       X       $ 2.[ ",
"o # o   + @   + o # # * o o d f X *.h $ #     X . . o       p r ",
"    o o @ o       9 o $ o o m X   $ $ o o %           o   $ * 3 ",
"@     + j   O   X X o b     .     $ # # o o     o O %   o o 8 ` ",
"+ o   o   o X   X   o     X     X $ D V # o     o o o o + 9 y.O.",
"  ; P o o @   @   X       O   @   9 4.' o o j   @   +   o 9 +.! ",
"  @ n @ o       X     X         # $ 9 ~   o       o +   o o & * ",
"X   o o o o .               o   o o $       o @         o # # # ",
"X o o o o o o       + o   o     + + o   %   @         o o # < 9 ",
"      o o o o   o o o o o o       %   i   < + o   X   c t = %   ",
"      o   o   o c t.V # # o + ; o   @ , . < o o @     , Y o o   ",
"            o o ] 0.I N # #     o     X   q o o     o   $ o   o ",
"        .     + 9 I  . .& o % X       . o   q q o   % o $ o   O ",
"    . . . X   o o & 7 I & $ o     X     @ o # o o $ : a a o o   ",
"  .     X     @ # # # J # # o +   o     + o o ..$ # l :.%       ",
"        O .     o o + X $ $ u # 9 o # o o # 3 K W * # o @       ",
"o   o o     q % o o C $ p E * & ] $ o % # 3 M u.o.6 $ o X   + $ ",
"o # o # o o     o $ # 8 ,.9.R o = $ o o # e #.7.$.Z $     . $ # ",
"o o & 2 2 # o o o = 8 } 1.;.( + o   o   = & r _ r * o ; o o # o ",
"o # e 6.-.2 #   o o 5 F e &.$ o       @   o & & & # o o     o o ",
"o # B @.>.y # o o   o * # s $ o         o   # # & ) %.o   o +   ",
"% # & ^ { 3 # +     o   X.$     o           o 5 & =.%.l +       ",
". % # 2 3 # o +         1 o o o o o         q %.& t N o o X   @ ",
"o       o o X     @ o .   o $ o o * X $ $ + # 5 & & 4 # # o @ o ",
"      o   X         o @ = > # o # 3 w * $ L k & & & # # # o o   ",
"  o   o     v m @ .   o % 9 > : # R ( * S U J s & # o o o o o @ ",
"# # o % o   3.5.      . o O ; o $ L Q o s 5 9 T # $ o o         ",
"6 2 & # % o q g   @         X + + $ o $ = l D u X         . X O ",
"<.w.A & # $                           o o # q $ 1 X   .     X   ",
"q.r.K * o       o   o             o @ . o   ;   +     . .       ",
"8.r.W # o     o o o o   .   X       . o O o   X       . .       "
};
